<svg width="25" height="25" viewBox="0 0 25 25" fill="none" xmlns="http://www.w3.org/2000/svg">
<g clip-path="url(#clip0_5362_9389)">
<path d="M16.524 8.92871C18.5368 8.92871 20.4672 9.7283 21.8904 11.1516C23.3136 12.5748 24.1133 14.5052 24.1133 16.518C24.1181 18.0119 23.6765 19.4732 22.8454 20.7144L24.1133 24.1073L19.8454 23.3394C18.819 23.84 17.6929 24.1025 16.551 24.1073C15.4091 24.1121 14.2808 23.8591 13.2502 23.3673C12.2196 22.8755 11.3133 22.1573 10.5988 21.2666C9.88433 20.3759 9.38004 19.3353 9.12358 18.2225C8.86711 17.1098 8.86504 15.9535 9.11756 14.8398C9.37008 13.7261 9.87065 12.6838 10.582 11.7905C11.2933 10.8972 12.197 10.1759 13.2259 9.68041C14.2547 9.18491 15.3821 8.92796 16.524 8.92871Z" stroke="white" stroke-width="1.78571" stroke-linecap="round" stroke-linejoin="round"/>
<path d="M17.6049 4.48214C16.4024 2.95191 14.7526 1.83473 12.8853 1.28615C11.018 0.737568 9.02613 0.784885 7.18698 1.42151C5.34784 2.05814 3.75298 3.25239 2.62443 4.838C1.49589 6.42359 0.889842 8.32165 0.890667 10.2679C0.885133 12.1179 1.43233 13.9274 2.46209 15.4643L0.890667 19.6428L4.67638 18.9642" stroke="white" stroke-width="1.78571" stroke-linecap="round" stroke-linejoin="round"/>
<path d="M13.2922 16.8655C12.9026 16.7977 12.9026 16.2384 13.2922 16.1706C14.7036 15.9251 15.8262 14.85 16.1325 13.4506L16.156 13.3433C16.2403 12.9583 16.7886 12.9559 16.8762 13.3402L16.9047 13.4652C17.2224 14.858 18.3453 15.924 19.7528 16.1689C20.1444 16.237 20.1444 16.7991 19.7528 16.8672C18.3453 17.1121 17.2224 18.1781 16.9047 19.5709L16.8762 19.6959C16.7886 20.0802 16.2403 20.0778 16.156 19.6928L16.1325 19.5855C15.8262 18.1861 14.7036 17.111 13.2922 16.8655Z" stroke="white" stroke-width="1.11016" stroke-linecap="round" stroke-linejoin="round"/>
</g>
<defs>
<clipPath id="clip0_5362_9389">
<rect width="25" height="25" fill="white"/>
</clipPath>
</defs>
</svg>
