<svg width="25" height="24" viewBox="0 0 25 24" fill="none" xmlns="http://www.w3.org/2000/svg">
<path d="M3.39612 12.97V15C3.39612 20 5.39612 22 10.3961 22H14.3961C19.3961 22 21.3961 20 21.3961 15V9C21.3961 4 19.3961 2 14.3961 2H10.3961C5.39612 2 3.39612 4 3.39612 9" stroke="#898989" stroke-width="1.5" stroke-linecap="round" stroke-linejoin="round"/>
<path d="M16.8961 7.57999V8.57999C16.8961 9.39999 16.2261 10.08 15.3961 10.08H9.39612C8.57612 10.08 7.89612 9.40999 7.89612 8.57999V7.57999C7.89612 6.75999 8.56612 6.07999 9.39612 6.07999H15.3961C16.2261 6.07999 16.8961 6.74999 16.8961 7.57999Z" stroke="#898989" stroke-width="1.5" stroke-linecap="round" stroke-linejoin="round"/>
<path d="M8.53224 14H8.54379" stroke="#898989" stroke-width="2" stroke-linecap="round" stroke-linejoin="round"/>
<path d="M12.3914 14H12.4029" stroke="#898989" stroke-width="2" stroke-linecap="round" stroke-linejoin="round"/>
<path d="M16.2504 14H16.262" stroke="#898989" stroke-width="2" stroke-linecap="round" stroke-linejoin="round"/>
<path d="M8.53224 17.5H8.54379" stroke="#898989" stroke-width="2" stroke-linecap="round" stroke-linejoin="round"/>
<path d="M12.3914 17.5H12.4029" stroke="#898989" stroke-width="2" stroke-linecap="round" stroke-linejoin="round"/>
<path d="M16.2504 17.5H16.262" stroke="#898989" stroke-width="2" stroke-linecap="round" stroke-linejoin="round"/>
</svg>
