<svg width="25" height="25" viewBox="0 0 25 25" fill="none" xmlns="http://www.w3.org/2000/svg">
<path d="M21.4761 9.5605V16.4005C21.4761 17.5205 20.8761 18.5605 19.9061 19.1305L13.9661 22.5605C12.9961 23.1205 11.7961 23.1205 10.8161 22.5605L4.87609 19.1305C3.90609 18.5705 3.30609 17.5305 3.30609 16.4005V9.5605C3.30609 8.4405 3.90609 7.40046 4.87609 6.83046L10.8161 3.40047C11.7861 2.84047 12.9861 2.84047 13.9661 3.40047L19.9061 6.83046C20.8761 7.40046 21.4761 8.4305 21.4761 9.5605Z" stroke="#898989" stroke-width="1.5" stroke-linecap="round" stroke-linejoin="round"/>
<path d="M12.3961 11.9805C13.6829 11.9805 14.7261 10.9373 14.7261 9.65045C14.7261 8.36363 13.6829 7.3205 12.3961 7.3205C11.1093 7.3205 10.0661 8.36363 10.0661 9.65045C10.0661 10.9373 11.1093 11.9805 12.3961 11.9805Z" stroke="#898989" stroke-width="1.5" stroke-linecap="round" stroke-linejoin="round"/>
<path d="M16.3961 17.6404C16.3961 15.8404 14.6061 14.3805 12.3961 14.3805C10.1861 14.3805 8.39612 15.8404 8.39612 17.6404" stroke="#898989" stroke-width="1.5" stroke-linecap="round" stroke-linejoin="round"/>
</svg>
