<svg width="25" height="25" viewBox="0 0 25 25" fill="none" xmlns="http://www.w3.org/2000/svg">
<path d="M21.4893 12.2372V7.97717C21.4893 3.94717 20.5493 2.93716 16.7693 2.93716H9.20926C5.42926 2.93716 4.48926 3.94717 4.48926 7.97717V19.2372C4.48926 21.8972 5.94927 22.5272 7.71927 20.6272L7.72925 20.6172C8.54925 19.7472 9.79925 19.8172 10.5092 20.7672L11.5193 22.1172" stroke="#898989" stroke-width="1.5" stroke-linecap="round" stroke-linejoin="round"/>
<path d="M19.1893 22.3372C20.9566 22.3372 22.3893 20.9045 22.3893 19.1372C22.3893 17.3699 20.9566 15.9372 19.1893 15.9372C17.422 15.9372 15.9893 17.3699 15.9893 19.1372C15.9893 20.9045 17.422 22.3372 19.1893 22.3372Z" stroke="#898989" stroke-width="1.5" stroke-linecap="round" stroke-linejoin="round"/>
<path d="M22.9893 22.9372L21.9893 21.9372" stroke="#898989" stroke-width="1.5" stroke-linecap="round" stroke-linejoin="round"/>
<path d="M8.98926 7.93716H16.9893" stroke="#898989" stroke-width="1.5" stroke-linecap="round" stroke-linejoin="round"/>
<path d="M9.98926 11.9372H15.9893" stroke="#898989" stroke-width="1.5" stroke-linecap="round" stroke-linejoin="round"/>
</svg>
