<svg width="25" height="25" viewBox="0 0 25 25" fill="none" xmlns="http://www.w3.org/2000/svg">
<path d="M22.6992 8.91427C23.9492 7.66427 23.3792 6.20427 22.6992 5.49427L19.6992 2.49427C18.4392 1.24427 16.9892 1.81427 16.2792 2.49427L14.5792 4.20427H11.9892C10.0892 4.20427 8.98925 5.20427 8.42925 6.35427L3.98925 10.7943V14.7943L3.27925 15.4943C2.02925 16.7543 2.59925 18.2043 3.27925 18.9143L6.27925 21.9143C6.81925 22.4543 7.39925 22.6543 7.94925 22.6543C8.65925 22.6543 9.30925 22.3043 9.69925 21.9143L12.3992 19.2043H15.9892C17.6892 19.2043 18.5492 18.1443 18.8592 17.1043C19.9892 16.8043 20.6092 15.9443 20.8592 15.1043C22.4092 14.7043 22.9892 13.2343 22.9892 12.2043V9.20427H22.3992L22.6992 8.91427ZM20.9892 12.2043C20.9892 12.6543 20.7992 13.2043 19.9892 13.2043H18.9892V14.2043C18.9892 14.6543 18.7992 15.2043 17.9892 15.2043H16.9892V16.2043C16.9892 16.6543 16.7992 17.2043 15.9892 17.2043H11.5792L8.29925 20.4843C7.98925 20.7743 7.80925 20.6043 7.69925 20.4943L4.70925 17.5143C4.41925 17.2043 4.58925 17.0243 4.69925 16.9143L5.98925 15.6143V11.6143L7.98925 9.61427V11.2043C7.98925 12.4143 8.78925 14.2043 10.9892 14.2043C13.1892 14.2043 13.9892 12.4143 13.9892 11.2043H20.9892V12.2043ZM21.2792 7.49427L19.5792 9.20427H11.9892V11.2043C11.9892 11.6543 11.7992 12.2043 10.9892 12.2043C10.1792 12.2043 9.98925 11.6543 9.98925 11.2043V8.20427C9.98925 7.74427 10.1592 6.20427 11.9892 6.20427H15.3992L17.6792 3.92427C17.9892 3.63427 18.1692 3.80427 18.2792 3.91427L21.2692 6.89427C21.5592 7.20427 21.3892 7.38427 21.2792 7.49427Z" fill="#898989"/>
</svg>
