<svg width="25" height="25" viewBox="0 0 25 25" fill="none" xmlns="http://www.w3.org/2000/svg">
<path d="M14.0473 7.91797H4.41201C3.04753 7.91797 1.94141 9.02382 1.94141 10.3883C1.94141 13.4198 1.94141 17.1344 1.94141 19.5329C1.94141 20.8974 3.04753 22.0004 4.412 22.0004H19.4827C20.8471 22.0004 21.9532 20.8943 21.9532 19.5298V12.118" stroke="#898989" stroke-width="1.50714"/>
<path d="M2.68359 8.6582L10.3172 15.4949C11.1767 16.2648 12.4562 16.3383 13.3476 15.6057C15.5152 13.8242 17.7542 11.6229 17.7542 11.6229" stroke="#898989" stroke-width="1.50714"/>
<path d="M19.2371 1C19.2248 4.10357 20.7338 5.86411 24.1783 5.9412C20.9838 5.92884 19.3992 7.64146 19.2371 10.8824C19.206 7.82527 17.8397 5.93675 14.2959 5.9412C17.4662 5.89673 19.2248 4.36644 19.2371 1Z" stroke="#898989" stroke-width="1.00476" stroke-linecap="round" stroke-linejoin="round"/>
</svg>
