<svg width="25" height="25" viewBox="0 0 25 25" fill="none" xmlns="http://www.w3.org/2000/svg">
<path d="M9.55612 11.8602C9.45612 11.8502 9.33612 11.8502 9.22612 11.8602C6.84612 11.7802 4.95612 9.83023 4.95612 7.43023C4.95612 4.98023 6.93612 2.99023 9.39612 2.99023C11.8461 2.99023 13.8361 4.98023 13.8361 7.43023C13.8261 9.83023 11.9361 11.7802 9.55612 11.8602Z" stroke="#898989" stroke-width="1.5" stroke-linecap="round" stroke-linejoin="round"/>
<path d="M16.8061 4.99023C18.7461 4.99023 20.3061 6.56023 20.3061 8.49023C20.3061 10.3802 18.8061 11.9202 16.9361 11.9902C16.8561 11.9802 16.7661 11.9802 16.6761 11.9902" stroke="#898989" stroke-width="1.5" stroke-linecap="round" stroke-linejoin="round"/>
<path d="M4.55609 15.5502C2.13609 17.1702 2.13609 19.8102 4.55609 21.4202C7.30609 23.2602 11.8161 23.2602 14.5661 21.4202C16.9861 19.8002 16.9861 17.1602 14.5661 15.5502C11.8261 13.7202 7.31609 13.7202 4.55609 15.5502Z" stroke="#898989" stroke-width="1.5" stroke-linecap="round" stroke-linejoin="round"/>
<path d="M18.7361 20.9902C19.4561 20.8402 20.1361 20.5502 20.6961 20.1202C22.2561 18.9502 22.2561 17.0202 20.6961 15.8502C20.1461 15.4302 19.4761 15.1502 18.7661 14.9902" stroke="#898989" stroke-width="1.5" stroke-linecap="round" stroke-linejoin="round"/>
</svg>
