<svg width="16" height="16" viewBox="0 0 16 16" fill="none" xmlns="http://www.w3.org/2000/svg">
<g clip-path="url(#clip0_398_3928)">
<path d="M15.0278 1.20018V4.00018L1.96117 4.00018C1.71363 4.00018 1.47622 3.94116 1.30121 3.83621C1.12617 3.73116 1.02783 3.5887 1.02783 3.44018L1.02783 1.76018C1.02783 1.61167 1.12617 1.46921 1.30121 1.36415C1.47622 1.25921 1.71363 1.20018 1.96117 1.20018L15.0278 1.20018Z" stroke="#838486" stroke-linecap="round" stroke-linejoin="round"/>
<path d="M15.0278 7.02831V9.82831H1.96117C1.71363 9.82831 1.47622 9.76928 1.30121 9.66434C1.12617 9.55928 1.02783 9.41682 1.02783 9.26831L1.02783 7.58831C1.02783 7.4398 1.12617 7.29733 1.30121 7.19228C1.47622 7.08733 1.71363 7.02831 1.96117 7.02831L15.0278 7.02831Z" stroke="#838486" stroke-linecap="round" stroke-linejoin="round"/>
<path d="M15.0278 12.7441V15.5441H1.96117C1.71363 15.5441 1.47622 15.4851 1.30121 15.3802C1.12617 15.2751 1.02783 15.1326 1.02783 14.9841L1.02783 13.3041C1.02783 13.1556 1.12617 13.0132 1.30121 12.9081C1.47622 12.8032 1.71363 12.7441 1.96117 12.7441H15.0278Z" stroke="#838486" stroke-linecap="round" stroke-linejoin="round"/>
</g>
<defs>
<clipPath id="clip0_398_3928">
<rect width="16" height="16" fill="white"/>
</clipPath>
</defs>
</svg>
