<svg width="30" height="30" viewBox="0 0 30 30" fill="none" xmlns="http://www.w3.org/2000/svg">
<path opacity="0.25" fill-rule="evenodd" clip-rule="evenodd" d="M2.96124 8.1773C3.32391 5.4313 5.4313 3.32391 8.1773 2.96124C10.0651 2.71192 12.4266 2.5 15 2.5C17.5734 2.5 19.9349 2.71192 21.8227 2.96124C24.5687 3.32391 26.6761 5.4313 27.0388 8.1773C27.2881 10.0651 27.5 12.4266 27.5 15C27.5 17.5734 27.2881 19.9349 27.0388 21.8227C26.6761 24.5687 24.5687 26.6761 21.8227 27.0388C19.9349 27.2881 17.5734 27.5 15 27.5C12.4266 27.5 10.0651 27.2881 8.1773 27.0388C5.4313 26.6761 3.32391 24.5687 2.96124 21.8227C2.71192 19.9349 2.5 17.5734 2.5 15C2.5 12.4266 2.71192 10.0651 2.96124 8.1773Z" fill="#111219"/>
<path fill-rule="evenodd" clip-rule="evenodd" d="M10.3661 10.3661C10.8543 9.87796 11.6457 9.87796 12.1339 10.3661L15 13.2322L17.8661 10.3661C18.3543 9.87796 19.1457 9.87796 19.6339 10.3661C20.122 10.8543 20.122 11.6457 19.6339 12.1339L16.7678 15L19.6339 17.8661C20.122 18.3543 20.122 19.1457 19.6339 19.6339C19.1457 20.122 18.3543 20.122 17.8661 19.6339L15 16.7678L12.1339 19.6339C11.6457 20.122 10.8543 20.122 10.3661 19.6339C9.87796 19.1457 9.87796 18.3543 10.3661 17.8661L13.2322 15L10.3661 12.1339C9.87796 11.6457 9.87796 10.8543 10.3661 10.3661Z" fill="white"/>
</svg>
