<svg width="14" height="14" viewBox="0 0 14 14" fill="none" xmlns="http://www.w3.org/2000/svg">
<g id="Dollar-Coin--Streamline-Core" clip-path="url(#clip0_179_631)">
<g id="dollar-coin--accounting-billing-payment-cash-coin-currency-money-finance">
<path id="Vector" d="M7 13.5C10.5899 13.5 13.5 10.5899 13.5 7C13.5 3.41015 10.5899 0.5 7 0.5C3.41015 0.5 0.5 3.41015 0.5 7C0.5 10.5899 3.41015 13.5 7 13.5Z" stroke="white" stroke-linecap="round" stroke-linejoin="round"/>
<path id="Vector 3" d="M8.70234 5.22238C8.64381 5.05678 8.55349 4.90618 8.43871 4.77794C8.19456 4.50516 7.83977 4.3335 7.44488 4.3335H6.41284C5.75552 4.3335 5.22266 4.86636 5.22266 5.52367C5.22266 6.08298 5.61211 6.56683 6.1585 6.68636L7.72981 7.03008C8.34192 7.16398 8.77821 7.70642 8.77821 8.33301C8.77821 9.06939 8.18126 9.66683 7.44488 9.66683H6.55599C5.97545 9.66683 5.48157 9.2958 5.29853 8.77794" stroke="white" stroke-linecap="round" stroke-linejoin="round"/>
<path id="Vector 2489" d="M7 4.33333V3" stroke="white" stroke-linecap="round" stroke-linejoin="round"/>
<path id="Vector 2490" d="M7 10.9998V9.6665" stroke="white" stroke-linecap="round" stroke-linejoin="round"/>
</g>
</g>
<defs>
<clipPath id="clip0_179_631">
<rect width="14" height="14" fill="white"/>
</clipPath>
</defs>
</svg>
