<svg width="16" height="16" viewBox="0 0 16 16" fill="none" xmlns="http://www.w3.org/2000/svg">
<g clip-path="url(#clip0_52_187)">
<path d="M4.96932 14.1997C5.88413 14.6477 6.91269 14.8993 7.99999 14.8993C11.8104 14.8993 14.8993 11.8104 14.8993 7.99999C14.8993 4.18962 11.8104 1.10071 7.99999 1.10071C4.18962 1.10071 1.10071 4.18962 1.10071 7.99999C1.10071 9.41446 1.52636 10.7295 2.25656 11.824M4.96932 14.1997L1.10071 14.8993L2.25656 11.824M4.96932 14.1997L4.97492 14.1987M2.25656 11.824L2.25767 11.8211" stroke="#017858" stroke-width="1.14" stroke-linecap="round" stroke-linejoin="round"/>
<path d="M4.96932 14.1997C5.88413 14.6477 6.91269 14.8993 7.99999 14.8993C11.8104 14.8993 14.8993 11.8104 14.8993 7.99999C14.8993 4.18962 11.8104 1.10071 7.99999 1.10071C4.18962 1.10071 1.10071 4.18962 1.10071 7.99999C1.10071 9.41446 1.52636 10.7295 2.25656 11.824M4.96932 14.1997L1.10071 14.8993L2.25656 11.824M4.96932 14.1997L4.97492 14.1987M2.25656 11.824L2.25767 11.8211" stroke="#017858" stroke-width="1.14" stroke-linecap="round" stroke-linejoin="round"/>
<g clip-path="url(#clip1_52_187)">
<path d="M8.00189 10.4991L5.46022 8.19684C4.07887 6.81549 6.10945 4.16331 8.00189 6.309C9.89432 4.16331 11.9157 6.8247 10.5436 8.19684L8.00189 10.4991Z" stroke="#017858" stroke-width="1.14" stroke-linecap="round" stroke-linejoin="round"/>
</g>
</g>
<defs>
<clipPath id="clip0_52_187">
<rect width="16" height="16" fill="white"/>
</clipPath>
<clipPath id="clip1_52_187">
<rect width="7" height="7" fill="white" transform="translate(4.5 4.49999)"/>
</clipPath>
</defs>
</svg>
