<svg width="12" height="12" viewBox="0 0 12 12" fill="none" xmlns="http://www.w3.org/2000/svg">
<path d="M1.46632 2.1958H10.5338C10.5338 2.1958 11.2233 2.1958 11.2233 2.88527V9.11455C11.2233 9.11455 11.2233 9.80401 10.5338 9.80401H1.46632C1.46632 9.80401 0.776855 9.80402 0.776855 9.11455V2.88527C0.776855 2.88527 0.776855 2.1958 1.46632 2.1958Z" stroke="#838486" stroke-width="0.86" stroke-linecap="round" stroke-linejoin="round"/>
<path d="M7.896 5.09961H9.49255" stroke="#838486" stroke-width="0.86" stroke-linecap="round" stroke-linejoin="round"/>
<path d="M7.896 6.68164H9.49255" stroke="#838486" stroke-width="0.86" stroke-linecap="round" stroke-linejoin="round"/>
<path d="M3.19336 5.36342C3.19336 6.09161 3.78367 6.68192 4.51186 6.68192C4.69595 6.68192 4.87122 6.64419 5.03038 6.57605C5.50078 6.37464 5.83035 5.90752 5.83035 5.36342C5.83035 4.63523 5.24005 4.04492 4.51186 4.04492C3.78367 4.04492 3.19336 4.63523 3.19336 5.36342Z" stroke="#838486" stroke-width="0.86" stroke-linecap="round" stroke-linejoin="round"/>
<path d="M2.50757 7.98755C2.71708 7.58905 3.01153 7.25971 3.36262 7.03118C3.7137 6.80265 4.10962 6.68262 4.51231 6.68262C4.915 6.68262 5.31092 6.80265 5.66201 7.03118C6.0131 7.25971 6.30755 7.58905 6.51706 7.98755" stroke="#838486" stroke-width="0.86" stroke-linecap="round" stroke-linejoin="round"/>
</svg>
