<svg width="16" height="16" viewBox="0 0 16 16" fill="none" xmlns="http://www.w3.org/2000/svg">
<path d="M8.00009 4.82745C7.87989 4.82745 7.76461 4.7797 7.67962 4.69471C7.59462 4.60971 7.54688 4.49443 7.54688 4.37423C7.54688 4.25403 7.59462 4.13876 7.67962 4.05376C7.76461 3.96877 7.87989 3.92102 8.00009 3.92102C8.12029 3.92102 8.23557 3.96877 8.32056 4.05376C8.40555 4.13876 8.4533 4.25403 8.4533 4.37423C8.4533 4.49443 8.40555 4.60971 8.32056 4.69471C8.23557 4.7797 8.12029 4.82745 8.00009 4.82745ZM8.00009 8.45316C7.87989 8.45316 7.76461 8.40541 7.67962 8.32042C7.59462 8.23543 7.54688 8.12015 7.54688 7.99995C7.54688 7.87975 7.59462 7.76447 7.67962 7.67948C7.76461 7.59448 7.87989 7.54673 8.00009 7.54673C8.12029 7.54673 8.23557 7.59448 8.32056 7.67948C8.40555 7.76447 8.4533 7.87975 8.4533 7.99995C8.4533 8.12015 8.40555 8.23543 8.32056 8.32042C8.23557 8.40541 8.12029 8.45316 8.00009 8.45316ZM8.00009 12.0789C7.87989 12.0789 7.76461 12.0311 7.67962 11.9461C7.59462 11.8611 7.54688 11.7459 7.54688 11.6257C7.54688 11.5055 7.59462 11.3902 7.67962 11.3052C7.76461 11.2202 7.87989 11.1724 8.00009 11.1724C8.12029 11.1724 8.23557 11.2202 8.32056 11.3052C8.40555 11.3902 8.4533 11.5055 8.4533 11.6257C8.4533 11.7459 8.40555 11.8611 8.32056 11.9461C8.23557 12.0311 8.12029 12.0789 8.00009 12.0789Z" fill="#5E5E60" stroke="#5E5E60" stroke-width="1.49714" stroke-linecap="round" stroke-linejoin="round"/>
</svg>
