<svg width="12" height="12" viewBox="0 0 12 12" fill="none" xmlns="http://www.w3.org/2000/svg">
<path d="M10.0593 11.1721V8.91771C10.0593 7.78694 9.14266 6.8703 8.01194 6.8703H6.23367V3.54778C6.23367 3.01948 5.80541 2.59122 5.27711 2.59122C4.74882 2.59122 4.32055 3.01948 4.32055 3.54778L4.32055 7.9031L4.00156 7.96314C3.03166 8.14567 2.57009 9.26552 3.12969 10.0784L3.25835 10.2653L3.88177 11.1721" stroke="#838486" stroke-width="0.86" stroke-linecap="round" stroke-linejoin="round"/>
<path d="M2.49684 4.35474C2.448 4.14479 2.42218 3.926 2.42218 3.70117C2.42218 2.11428 3.70861 0.82785 5.2955 0.82785C6.88239 0.82785 8.16881 2.11428 8.16881 3.70117C8.16881 3.926 8.14299 4.14479 8.09416 4.35474" stroke="#838486" stroke-width="0.86" stroke-linecap="round" stroke-linejoin="round"/>
</svg>
