<svg width="16" height="16" viewBox="0 0 16 16" fill="none" xmlns="http://www.w3.org/2000/svg">
<g clip-path="url(#clip0_7018_2028)">
<path d="M8.00023 15.4274C12.103 15.4274 15.4288 12.1016 15.4288 7.99882C15.4288 3.89614 12.103 0.570251 8.00023 0.570251C3.89754 0.570251 0.571655 3.89614 0.571655 7.99882C0.571655 12.1016 3.89754 15.4274 8.00023 15.4274Z" stroke="#806400" stroke-width="1.14286" stroke-linecap="round" stroke-linejoin="round"/>
<path d="M6.28516 11.427H9.71373" stroke="#806400" stroke-width="1.14286" stroke-linecap="round" stroke-linejoin="round"/>
<path d="M8.00089 11.427V7.427H6.85803" stroke="#806400" stroke-width="1.14286" stroke-linecap="round" stroke-linejoin="round"/>
<path d="M8.00056 4.85646C7.84276 4.85646 7.71484 4.72854 7.71484 4.57075C7.71484 4.41295 7.84276 4.28503 8.00056 4.28503" stroke="#806400" stroke-width="1.14286" stroke-linecap="round" stroke-linejoin="round"/>
<path d="M8.00134 4.8564C8.15914 4.8564 8.28706 4.72848 8.28706 4.57069C8.28706 4.41289 8.15914 4.28497 8.00134 4.28497" stroke="#806400" stroke-width="1.14286" stroke-linecap="round" stroke-linejoin="round"/>
</g>
<defs>
<clipPath id="clip0_7018_2028">
<rect width="16" height="16" fill="white"/>
</clipPath>
</defs>
</svg>
