<svg width="12" height="12" viewBox="0 0 12 12" fill="none" xmlns="http://www.w3.org/2000/svg">
<path d="M10.5312 6C10.5312 6.59505 10.414 7.18428 10.1863 7.73403C9.95861 8.28379 9.62484 8.78331 9.20408 9.20408C8.78331 9.62484 8.28379 9.95861 7.73403 10.1863C7.18428 10.414 6.59505 10.5313 6 10.5312C5.40495 10.5312 4.81572 10.414 4.26596 10.1863C3.71621 9.95861 3.21669 9.62484 2.79592 9.20408C2.37516 8.78331 2.04139 8.28379 1.81367 7.73403C1.58595 7.18428 1.46875 6.59505 1.46875 6C1.46875 5.40495 1.58595 4.81572 1.81367 4.26596C2.04139 3.71621 2.37516 3.21669 2.79592 2.79592C3.21669 2.37516 3.71621 2.04139 4.26597 1.81367C4.81572 1.58595 5.40495 1.46875 6 1.46875C6.59505 1.46875 7.18428 1.58595 7.73404 1.81367C8.28379 2.04139 8.78331 2.37516 9.20408 2.79592C9.62484 3.21669 9.95861 3.71621 10.1863 4.26597C10.414 4.81573 10.5313 5.40495 10.5312 6L10.5312 6Z" stroke="#FFEEB3" stroke-width="2" stroke-linecap="round" stroke-linejoin="round"/>
<path d="M6 1.46875C6.99291 1.46875 7.95833 1.79488 8.74784 2.397C9.53735 2.99912 10.1072 3.84389 10.3699 4.80144C10.6325 5.75898 10.5733 6.77629 10.2015 7.69694C9.82966 8.61759 9.16571 9.39063 8.31174 9.89719" stroke="#806400" stroke-width="2" stroke-linecap="round" stroke-linejoin="round"/>
</svg>
