<svg width="12" height="12" viewBox="0 0 12 12" fill="none" xmlns="http://www.w3.org/2000/svg">
<g clip-path="url(#clip0_9301_770)">
<path d="M0.61635 8.04928L3.95064 11.3836C4.07118 11.5039 4.23456 11.5715 4.40492 11.5715C4.57528 11.5715 4.73868 11.5039 4.85921 11.3836L11.4763 4.76642C11.5096 4.73464 11.5353 4.69582 11.5516 4.65281C11.568 4.60981 11.5744 4.56369 11.5706 4.51785L11.0649 1.23499C11.0608 1.15676 11.0279 1.08283 10.9725 1.02745C10.9171 0.972049 10.8432 0.939117 10.7649 0.934994L7.48206 0.42928C7.43622 0.425475 7.39011 0.431967 7.34711 0.448281C7.3041 0.464594 7.26528 0.490317 7.23349 0.523566L0.61635 7.14071C0.495965 7.26124 0.428345 7.42464 0.428345 7.59499C0.428345 7.76535 0.495965 7.92874 0.61635 8.04928Z" stroke="#838486" stroke-width="0.857143" stroke-linecap="round" stroke-linejoin="round"/>
<path d="M8.47642 3.95211C8.23973 3.95211 8.04785 3.76023 8.04785 3.52354C8.04785 3.28685 8.23973 3.09497 8.47642 3.09497C8.71313 3.09497 8.90496 3.28685 8.90496 3.52354C8.90496 3.76023 8.71313 3.95211 8.47642 3.95211Z" stroke="#838486" stroke-width="0.857143" stroke-linecap="round" stroke-linejoin="round"/>
</g>
<defs>
<clipPath id="clip0_9301_770">
<rect width="12" height="12" fill="white"/>
</clipPath>
</defs>
</svg>
