<svg width="16" height="14" viewBox="0 0 16 14" fill="none" xmlns="http://www.w3.org/2000/svg">
<path d="M7.9999 13.6667C7.16657 13.6667 6.38601 13.5083 5.65824 13.1917C4.93046 12.875 4.29712 12.4472 3.75824 11.9083C3.21935 11.3694 2.79157 10.7361 2.4749 10.0083C2.15824 9.28054 1.9999 8.49998 1.9999 7.66665C1.9999 6.83332 2.15824 6.05276 2.4749 5.32498C2.79157 4.59721 3.21935 3.96387 3.75824 3.42498C4.29712 2.88609 4.93046 2.45832 5.65824 2.14165C6.38601 1.82498 7.16657 1.66665 7.9999 1.66665C8.83324 1.66665 9.61379 1.82498 10.3416 2.14165C11.0693 2.45832 11.7027 2.88609 12.2416 3.42498C12.7805 3.96387 13.2082 4.59721 13.5249 5.32498C13.8416 6.05276 13.9999 6.83332 13.9999 7.66665C13.9999 8.49998 13.8416 9.28054 13.5249 10.0083C13.2082 10.7361 12.7805 11.3694 12.2416 11.9083C11.7027 12.4472 11.0693 12.875 10.3416 13.1917C9.61379 13.5083 8.83324 13.6667 7.9999 13.6667ZM9.86657 10.4667L10.7999 9.53332L8.66657 7.39998V4.33332H7.33324V7.93332L9.86657 10.4667ZM3.73324 0.56665L4.66657 1.49998L1.83324 4.33332L0.899902 3.39998L3.73324 0.56665ZM12.2666 0.56665L15.0999 3.39998L14.1666 4.33332L11.3332 1.49998L12.2666 0.56665ZM7.9999 12.3333C9.2999 12.3333 10.4027 11.8805 11.3082 10.975C12.2138 10.0694 12.6666 8.96665 12.6666 7.66665C12.6666 6.36665 12.2138 5.26387 11.3082 4.35832C10.4027 3.45276 9.2999 2.99998 7.9999 2.99998C6.6999 2.99998 5.59713 3.45276 4.69157 4.35832C3.78601 5.26387 3.33324 6.36665 3.33324 7.66665C3.33324 8.96665 3.78601 10.0694 4.69157 10.975C5.59713 11.8805 6.6999 12.3333 7.9999 12.3333Z" fill="var(--alarm-color, #3F4254)"/>
</svg>
