<svg width="30" height="30" viewBox="0 0 30 30" fill="none" xmlns="http://www.w3.org/2000/svg">
<path d="M15.09 29.2417C13.1199 29.2417 11.2685 28.8678 9.53573 28.1201C7.803 27.3724 6.29576 26.3577 5.01401 25.076C3.73226 23.7942 2.71754 22.287 1.96986 20.5543C1.22217 18.8215 0.848328 16.9701 0.848328 15C0.848328 13.0299 1.22217 11.1785 1.96986 9.44577C2.71754 7.71303 3.73226 6.20579 5.01401 4.92404C6.29576 3.6423 7.803 2.62758 9.53573 1.87989C11.2685 1.13221 13.1199 0.758362 15.09 0.758362C17.0601 0.758362 18.9115 1.13221 20.6442 1.87989C22.377 2.62758 23.8842 3.6423 25.1659 4.92404C26.4477 6.20579 27.4624 7.71303 28.2101 9.44577C28.9578 11.1785 29.3316 13.0299 29.3316 15C29.3316 15.6409 29.296 16.2699 29.2248 16.887C29.1536 17.5042 29.0349 18.1094 28.8688 18.7028C28.5365 18.3231 28.1508 18.0026 27.7116 17.7415C27.2725 17.4804 26.7919 17.3024 26.2697 17.2075C26.3409 16.8514 26.3943 16.4895 26.4299 16.1215C26.4655 15.7536 26.4833 15.3798 26.4833 15C26.4833 11.8194 25.3796 9.12533 23.1721 6.91788C20.9647 4.71042 18.2706 3.60669 15.09 3.60669C11.9093 3.60669 9.2153 4.71042 7.00784 6.91788C4.80039 9.12533 3.69666 11.8194 3.69666 15C3.69666 18.1806 4.80039 20.8747 7.00784 23.0821C9.2153 25.2896 11.9093 26.3933 15.09 26.3933C16.3005 26.3933 17.4577 26.2153 18.5614 25.8593C19.6651 25.5032 20.6798 25.0048 21.6055 24.3639C21.8904 24.7674 22.2405 25.1235 22.6559 25.432C23.0712 25.7406 23.5163 25.978 23.991 26.1441C22.7805 27.1173 21.4216 27.8768 19.9143 28.4228C18.4071 28.9687 16.799 29.2417 15.09 29.2417ZM25.4152 23.545C24.9167 23.545 24.4954 23.3729 24.1512 23.0287C23.8071 22.6846 23.635 22.2633 23.635 21.7648C23.635 21.2663 23.8071 20.845 24.1512 20.5008C24.4954 20.1567 24.9167 19.9846 25.4152 19.9846C25.9136 19.9846 26.3349 20.1567 26.6791 20.5008C27.0233 20.845 27.1954 21.2663 27.1954 21.7648C27.1954 22.2633 27.0233 22.6846 26.6791 23.0287C26.3349 23.3729 25.9136 23.545 25.4152 23.545ZM19.7897 21.6936L13.6658 15.5697V7.87919H16.5141V14.4303L21.7836 19.6998L19.7897 21.6936Z" fill="#9154DE"/>
</svg>
