<svg width="22" height="28" viewBox="0 0 22 28" fill="none" xmlns="http://www.w3.org/2000/svg">
<g id="Group 48096476">
<path id="Vector" d="M20.6472 11.8664V23.8235C20.6472 24.6051 20.3367 25.3547 19.784 25.9074C19.2313 26.4601 18.4817 26.7706 17.7001 26.7706H3.94708C3.16547 26.7706 2.41586 26.4601 1.86318 25.9074C1.3105 25.3547 1 24.6051 1 23.8235V4.17633C1 3.39471 1.3105 2.64511 1.86318 2.09243C2.41586 1.53974 3.16547 1.22925 3.94708 1.22925H10.0101C10.531 1.22933 11.0305 1.43626 11.3989 1.80454L20.0719 10.4776C20.4402 10.8459 20.6471 11.3455 20.6472 11.8664Z" stroke="#9154DE" stroke-width="2" stroke-linejoin="round"/>
<path id="Vector_2" d="M10.824 1.72046V9.08816C10.824 9.60923 11.031 10.109 11.3994 10.4774C11.7679 10.8459 12.2676 11.0529 12.7887 11.0529H20.1564" stroke="#9154DE" stroke-width="2" stroke-linecap="round" stroke-linejoin="round"/>
</g>
</svg>
