<svg width="24" height="25" viewBox="0 0 24 25" fill="none" xmlns="http://www.w3.org/2000/svg">
<g id="Office-Drawer--Streamline-Ultimate" clip-path="url(#clip0_2330_2470)">
<path id="Vector" d="M1.728 13.414H22.272C22.272 13.414 23.25 13.414 23.25 14.392V22.871C23.25 22.871 23.25 23.849 22.272 23.849H1.728C1.728 23.849 0.75 23.849 0.75 22.871V14.392C0.75 14.392 0.75 13.414 1.728 13.414Z" stroke="white" stroke-width="1.5" stroke-linecap="round" stroke-linejoin="round"/>
<path id="Vector_2" d="M2.25 13.414V7.57698C2.25159 7.31662 2.3564 7.06752 2.54144 6.88435C2.72649 6.70119 2.97664 6.59891 3.237 6.59998H11.625C11.7779 6.59974 11.9287 6.63503 12.0657 6.70306C12.2026 6.77109 12.3218 6.86999 12.414 6.99198L13.6 8.84798H20.014C20.2745 8.84718 20.5247 8.94985 20.7096 9.13342C20.8945 9.31699 20.9989 9.56644 21 9.82698V13.414" stroke="white" stroke-width="1.5" stroke-linecap="round" stroke-linejoin="round"/>
<path id="Vector_3" d="M9.06494 16.348H14.9349" stroke="white" stroke-width="1.5" stroke-linecap="round" stroke-linejoin="round"/>
<path id="Vector_4" d="M19.7369 5.84803V4.57704C19.7353 4.31667 19.6305 4.06758 19.4455 3.88441C19.2604 3.70124 19.0103 3.59897 18.7499 3.60004H13.5999L12.4139 1.74004C12.3217 1.61805 12.2025 1.51914 12.0656 1.45111C11.9286 1.38309 11.7778 1.3478 11.6249 1.34803H4.49994C4.37085 1.3475 4.24292 1.37241 4.12346 1.42132C4.00399 1.47024 3.89533 1.5422 3.80368 1.63312C3.71203 1.72403 3.63918 1.8321 3.5893 1.95116C3.53941 2.07022 3.51346 2.19795 3.51294 2.32704V3.37004" stroke="white" stroke-width="1.5" stroke-linecap="round" stroke-linejoin="round"/>
</g>
<defs>
<clipPath id="clip0_2330_2470">
<rect width="24" height="24" fill="white" transform="translate(0 0.599976)"/>
</clipPath>
</defs>
</svg>
