<svg width="26" height="26" viewBox="0 0 26 26" fill="none" xmlns="http://www.w3.org/2000/svg">
  <path d="M3.21756 3.00192L15.067 6.37C15.87 6.63372 16.5712 7.14006 17.0742 7.81919C17.5771 8.49832 17.8569 9.31678 17.875 10.1617V21.5475C17.9088 21.907 17.8545 22.2692 17.7169 22.603C17.5793 22.9368 17.3624 23.2321 17.085 23.4632C16.8077 23.6943 16.4783 23.8545 16.1251 23.9298C15.772 24.0049 15.4059 23.9931 15.0583 23.8951L5.25639 21.2301C4.45336 20.9803 3.74927 20.4841 3.24378 19.812C2.73827 19.1399 2.45699 18.3258 2.43973 17.485V5.07867C2.42193 4.29176 2.71605 3.52974 3.25793 2.95884C3.7998 2.38795 4.54546 2.0545 5.33223 2.03125H20.3125C21.1745 2.03125 22.0012 2.37366 22.6107 2.98315C23.2202 3.59265 23.5625 4.4193 23.5625 5.28125V14.9803C23.5587 15.4185 23.4685 15.8516 23.297 16.2548C23.1255 16.658 22.8761 17.0234 22.5631 17.3301C22.25 17.6367 21.8797 17.8786 21.473 18.0418C21.0664 18.205 20.6315 18.2865 20.1933 18.2813H17.875" stroke="white" stroke-width="2" stroke-linecap="round" stroke-linejoin="round"/>
  <path d="M13.4063 15.0313C13.1819 15.0313 13 14.8494 13 14.625C13 14.4006 13.1819 14.2188 13.4063 14.2188" stroke="white" stroke-width="2"/>
  <path d="M13.4062 15.0313C13.6306 15.0313 13.8125 14.8494 13.8125 14.625C13.8125 14.4006 13.6306 14.2188 13.4062 14.2188" stroke="white" stroke-width="2"/>
  <path d="M23.5625 10.1562H17.875" stroke="white" stroke-width="2" stroke-linecap="round" stroke-linejoin="round"/>
</svg>
