<svg width="13" height="14" viewBox="0 0 13 14" fill="none" xmlns="http://www.w3.org/2000/svg">
<g clip-path="url(#clip0_468_208)">
<path d="M11.625 5.375H7.59375L6.375 1.625L5.15625 5.375H1.125L4.40625 7.625L3.14062 11.375L6.375 9.03125L9.60938 11.375L8.34375 7.625L11.625 5.375Z" fill="#E94F0E"/>
<path fill-rule="evenodd" clip-rule="evenodd" d="M6.37503 1.25C6.53748 1.25 6.68146 1.3546 6.73167 1.50909L7.86621 5H11.625C11.7894 5 11.9346 5.10701 11.9832 5.26399C12.0319 5.42097 11.9726 5.59133 11.8371 5.68427L8.7898 7.77385L9.96471 11.2551C10.0169 11.4097 9.96312 11.5803 9.83173 11.677C9.70034 11.7737 9.52148 11.7744 9.38936 11.6787L6.37503 9.49436L3.36069 11.6787C3.22858 11.7744 3.04972 11.7737 2.91833 11.677C2.78694 11.5803 2.73317 11.4097 2.78534 11.2551L3.96026 7.77385L0.912955 5.68427C0.777415 5.59133 0.718185 5.42097 0.766836 5.26399C0.815488 5.10701 0.960684 5 1.12503 5H4.88385L6.01839 1.50909C6.0686 1.3546 6.21258 1.25 6.37503 1.25ZM6.37503 2.83825L5.51292 5.49091C5.46271 5.6454 5.31873 5.75 5.15628 5.75H2.335L4.61835 7.31573C4.75675 7.41063 4.81525 7.58592 4.76159 7.74492L3.87146 10.3823L6.15499 8.72759C6.28626 8.63247 6.4638 8.63247 6.59507 8.72759L8.87859 10.3823L7.98847 7.74492C7.93481 7.58592 7.99331 7.41063 8.13171 7.31573L10.4151 5.75H7.59378C7.43133 5.75 7.28735 5.6454 7.23714 5.49091L6.37503 2.83825Z" fill="#E94F0E"/>
</g>
<defs>
<clipPath id="clip0_468_208">
<rect width="12" height="14" fill="white" transform="translate(0.375)"/>
</clipPath>
</defs>
</svg>
