<svg width="49" height="49" viewBox="0 0 49 49" fill="none" xmlns="http://www.w3.org/2000/svg">
<path d="M44.0217 0H31.9541C30.7272 0 29.6102 0.574986 28.9876 1.52782L19.4287 15.6232H32.2288C34.0051 15.6232 35.7081 15.0975 37.1181 14.1282C41.2383 11.7297 44.6443 8.47694 47.0615 4.63275C48.3434 2.5628 46.677 0 44.0217 0Z" fill="#01AB7D"/>
<path d="M29.5644 15.6232L20.0055 1.52782C19.3829 0.574986 18.2659 0 17.039 0H4.97136C2.31612 0 0.649731 2.5628 1.94988 4.63275C4.3664 8.46827 7.77704 11.7253 11.8933 14.1282C13.285 15.0975 15.0063 15.6232 16.7826 15.6232H29.5644Z" fill="#017858"/>
<path d="M24.5 46.5C34.1651 46.5 42 38.665 42 29C42 19.335 34.1651 11.5 24.5 11.5C14.8349 11.5 7 19.335 7 29C7 38.665 14.8349 46.5 24.5 46.5Z" fill="#FAF0B2"/>
<path d="M24.5001 45C20.2238 45 16.2011 43.3379 13.1932 40.3142C10.1663 37.29 8.48044 33.2248 8.50017 28.9975C8.50017 24.7184 10.1672 20.7045 13.1932 17.6808C14.6615 16.2001 16.4199 15.0226 18.3639 14.2185C20.3079 13.4144 22.3977 13 24.5091 13C26.6206 13 28.7104 13.4144 30.6544 14.2185C32.5984 15.0226 34.3568 16.2001 35.8251 17.6808C42.0583 23.9226 42.0583 34.0723 35.8251 40.3142C32.7809 43.3379 28.7583 45 24.5001 45ZM24.482 15.1699C20.9486 15.1699 17.3971 16.5137 14.7153 19.2191C12.1062 21.8352 10.655 25.347 10.6746 28.9975C10.6746 32.6931 12.106 36.1588 14.7153 38.7758C15.9804 40.0571 17.4975 41.0762 19.1757 41.772C20.8538 42.4677 22.6586 42.8259 24.482 42.8251C28.1784 42.8251 31.6393 41.3928 34.2486 38.7758C39.6302 33.3827 39.6302 24.6123 34.2486 19.2191C32.9848 17.9362 31.468 16.9161 29.7895 16.2202C28.111 15.5243 26.3056 15.167 24.482 15.1699Z" fill="#F0D012"/>
<path d="M30.5445 31.5007C30.5435 31.5007 30.5425 31.5007 30.5415 31.5007C30.5227 31.4998 30.5075 31.4855 30.5065 31.4675L30.0001 24.8468C29.9991 24.8316 30.0072 24.8178 30.0229 24.8111C30.0371 24.8054 30.0543 24.8073 30.0655 24.8178L31.2202 25.8683L31.6886 22.5318C31.6906 22.5194 31.6998 22.508 31.7124 22.5033C31.7246 22.4985 31.7398 22.5004 31.75 22.509L33.986 24.1927C33.9971 24.2012 34.0022 24.216 33.9991 24.2293L33.0345 28.0468C33.0314 28.0592 33.0218 28.0692 33.0086 28.073C32.9965 28.0768 32.9823 28.0739 32.9721 28.0658L31.7236 27.0629L30.581 31.4741C30.577 31.4893 30.5617 31.5007 30.5445 31.5007ZM30.0827 24.9347L30.5648 31.2326L31.6633 26.9882C31.6663 26.9759 31.6765 26.9664 31.6886 26.9621C31.7018 26.9583 31.7155 26.9611 31.7256 26.9692L32.9742 27.9722L33.9185 24.234L31.754 22.6045L31.2846 25.9486C31.2826 25.9619 31.2735 25.9733 31.2588 25.9781C31.2456 25.9829 31.2304 25.979 31.2202 25.9705L30.0827 24.9347Z" fill="#FBB319"/>
<path d="M36.0086 24.5007L34.1563 28.0623L35.1744 28.0071L34 30.5741L35.1719 30.4163L34.078 33.5007L37 29.3047L35.5913 29.3868L36.6085 26.8198L35.3824 27.013L36.0086 24.5007Z" fill="#FBB319"/>
<path d="M15.5637 19.6775L19 23.2853L17.4152 23.2667L18.6483 25.6775L15 22.2828L16.7462 22.181L15.5637 19.6775Z" fill="#FBB319"/>
<path d="M20 27.6775L17.5015 28.9885L18.5415 29.4102L17 30.6775L19.6795 29.4728L18.608 28.9854L20 27.6775Z" fill="#FBB319"/>
<path d="M30 34.1877L32.7125 32.6775L32.3703 35.7552L34 34.9823L32.5565 39.6775L31.9271 36.8549L30.8946 37.4329L30 34.1877Z" fill="#FBB319"/>
<path d="M13.1872 34.5007C13.184 34.5007 13.1799 34.4998 13.1767 34.4989C13.1631 34.4935 13.1551 34.4768 13.1575 34.4605L13.83 30.5934L12.5138 31.1246C12.5022 31.1292 12.4901 31.1255 12.4813 31.1165C12.4733 31.1066 12.4709 31.093 12.4749 31.0804L13.1783 29.1005L12.0405 29.5572C12.03 29.5617 12.0188 29.559 12.0099 29.5509C12.0019 29.5427 11.9979 29.5301 12.0011 29.5174L12.9455 25.0315C12.9479 25.0188 12.9575 25.0089 12.9696 25.0062L15.3405 24.5012C15.3509 24.4994 15.3626 24.503 15.3698 24.5129C15.377 24.522 15.3786 24.536 15.3746 24.5477L14.4242 27.2765L15.9536 26.7001C15.9656 26.6956 15.9785 26.7001 15.9865 26.711C15.9945 26.7218 15.9953 26.7372 15.9897 26.7489L14.7623 29.2455L15.9632 28.9397C15.9745 28.937 15.9873 28.9415 15.9937 28.9524C16.0014 28.9632 16.0022 28.9776 15.9953 28.9898L13.2133 34.4836C13.2085 34.4944 13.1976 34.5007 13.1872 34.5007ZM13.8705 30.5071C13.8778 30.5071 13.885 30.5099 13.8898 30.5153C13.8978 30.5234 13.9019 30.5352 13.8995 30.5478L13.2518 34.2695L15.909 29.0242L14.7089 29.3291C14.6969 29.3318 14.6856 29.3273 14.6784 29.3164C14.6712 29.3051 14.6704 29.2907 14.676 29.2789L15.8986 26.7927L14.3817 27.365C14.3704 27.3696 14.358 27.3659 14.35 27.356C14.3419 27.3461 14.3395 27.3321 14.3435 27.3203L15.2967 24.5802L12.9989 25.0699L12.0722 29.4727L13.2205 29.0115C13.2317 29.007 13.2438 29.0106 13.2526 29.0197C13.2607 29.0296 13.2635 29.0431 13.259 29.0562L12.5556 31.0356L13.8593 30.509C13.8633 30.508 13.8665 30.5071 13.8705 30.5071Z" fill="#FBB319"/>
<path d="M16.9729 33.2408L19.6525 32.6775L18.4616 36.1244L20 35.6409L16.4699 41.6775L17.5847 36.9121L16 37.301L16.9729 33.2408Z" fill="#FBB319"/>
<path d="M20.1283 18.5966L21.3258 18.5007L21.07 20.0335L21.711 19.938L21.4978 21.5898L22 21.5185L21.2409 24.5007L21.2088 22.3087L20.5988 22.4168L20.738 20.7164L20 20.86L20.1283 18.5966Z" fill="#FBB319"/>
<path d="M28.5392 33.5007L27 33.9521L28.0598 35.2635L27.2136 35.4646L28.2769 36.9063L27.6162 37.067L30 39.5007L28.9838 37.4451L29.7946 37.2698L28.8014 35.7497L29.7905 35.5503L28.5392 33.5007Z" fill="#FBB319"/>
<path fill-rule="evenodd" clip-rule="evenodd" d="M28.9234 21.8093L30.0918 21.3776C30.1567 21.354 30.2237 21.3401 30.2929 21.3364C30.3615 21.3332 30.4296 21.3401 30.4967 21.3573C30.5637 21.3744 30.6264 21.4017 30.6849 21.438C30.7433 21.4744 30.7948 21.5188 30.8398 21.5712C30.8849 21.6237 30.9208 21.6814 30.9476 21.7446C30.9744 21.8082 30.9916 21.874 30.998 21.9425C31.0045 22.011 31.0007 22.0789 30.9862 22.1463C30.9718 22.2137 30.9476 22.2768 30.9133 22.3367L27.1345 28.9807L30.3594 28.1938C30.4286 28.1773 30.4983 28.1714 30.5691 28.1767C30.6398 28.1821 30.7079 28.1976 30.7734 28.2243C30.8393 28.2511 30.8994 28.2869 30.9535 28.3324C31.0077 28.3779 31.0538 28.4308 31.0913 28.4907C31.1289 28.5506 31.1562 28.6148 31.1734 28.6833C31.1905 28.7518 31.197 28.8213 31.1921 28.8919C31.1873 28.962 31.1712 29.03 31.145 29.0958C31.1187 29.161 31.0828 29.2209 31.0377 29.2755L17.5886 45.3586C17.5366 45.4212 17.4749 45.4725 17.4036 45.5132C17.3323 45.5533 17.2567 45.5801 17.1757 45.5924C17.0948 45.6052 17.0143 45.6036 16.9339 45.587C16.854 45.5704 16.7795 45.5405 16.7103 45.4966C16.6411 45.4533 16.5816 45.3987 16.5323 45.334C16.4835 45.2687 16.447 45.197 16.4239 45.1189C16.4009 45.0408 16.3923 44.9611 16.3987 44.8798C16.4046 44.7985 16.425 44.7209 16.4599 44.6471L20.866 35.1877L17.0765 35.7697C17.0133 35.7794 16.9494 35.7794 16.8856 35.7708C16.8218 35.7622 16.7607 35.7451 16.7022 35.7194C16.6433 35.6932 16.5891 35.6595 16.5403 35.6183C16.491 35.5771 16.4486 35.5295 16.4132 35.476C16.3778 35.4231 16.3505 35.3658 16.3312 35.3043C16.3124 35.2433 16.3022 35.1807 16.3011 35.1171C16.2995 35.0529 16.3076 34.9898 16.3247 34.9283C16.3414 34.8662 16.3666 34.8084 16.4003 34.7539L21.0301 27.2646L17.0932 27.9644C17.0288 27.9761 16.9639 27.9783 16.899 27.9708C16.8342 27.9638 16.7714 27.9472 16.7114 27.9221C16.6508 27.8964 16.5955 27.8632 16.5451 27.8221C16.4947 27.7803 16.4513 27.7327 16.4148 27.6787C16.3784 27.6247 16.3505 27.5669 16.3306 27.5043C16.3113 27.4422 16.3011 27.3786 16.3001 27.3139C16.2995 27.2486 16.3076 27.1849 16.3258 27.1223C16.3435 27.0598 16.3698 27.0009 16.4046 26.9458L22.6935 17.0258C22.7407 16.9509 22.8002 16.8878 22.8731 16.8364C22.9455 16.7851 23.0254 16.7498 23.1118 16.73L33.174 14.418C33.2421 14.4024 33.3108 14.3976 33.38 14.403C33.4497 14.4083 33.5162 14.4244 33.581 14.4506C33.6454 14.4768 33.7044 14.5121 33.758 14.5565C33.8111 14.6009 33.8567 14.6523 33.8942 14.7106C33.9317 14.7689 33.9596 14.8315 33.9773 14.8983C33.9955 14.9657 34.0025 15.0337 33.9993 15.1027C33.9961 15.1722 33.9827 15.2391 33.9585 15.3044C33.9344 15.3691 33.9006 15.429 33.8577 15.4836L28.9234 21.8093Z" fill="black"/>
<path fill-rule="evenodd" clip-rule="evenodd" d="M28.6343 20.9568L29.8008 20.525C29.865 20.501 29.9319 20.4876 30.0009 20.4838C30.0694 20.4806 30.1373 20.487 30.2042 20.5047C30.2711 20.5218 30.3337 20.5486 30.392 20.5855C30.4503 20.6219 30.5017 20.6663 30.5467 20.7187C30.5916 20.7712 30.6275 20.829 30.6542 20.8921C30.681 20.9558 30.6975 21.0216 30.7045 21.0901C30.7109 21.1586 30.7072 21.2265 30.6927 21.2939C30.6783 21.3608 30.6542 21.4245 30.62 21.4844L26.8493 28.1295L30.0678 27.3424C30.1368 27.3258 30.2064 27.3199 30.277 27.3253C30.3476 27.3301 30.4156 27.3461 30.4814 27.3729C30.5467 27.3996 30.6066 27.4355 30.6606 27.481C30.7147 27.5265 30.7607 27.5794 30.7981 27.6394C30.8356 27.6993 30.8629 27.7635 30.88 27.832C30.8971 27.9005 30.9035 27.97 30.8987 28.0401C30.8939 28.1108 30.8784 28.1787 30.8516 28.2445C30.8254 28.3098 30.7896 28.3697 30.7441 28.4243L17.3245 44.5112C17.2721 44.5738 17.2105 44.6252 17.1399 44.6659C17.0687 44.706 16.9927 44.7328 16.912 44.7456C16.8312 44.7584 16.7509 44.7563 16.6712 44.7397C16.5909 44.7237 16.5165 44.6937 16.4475 44.6498C16.378 44.6065 16.3191 44.5519 16.2699 44.4866C16.2206 44.4219 16.1843 44.3502 16.1612 44.2721C16.1382 44.1939 16.1297 44.1137 16.1361 44.0324C16.142 43.9516 16.1623 43.8734 16.1966 43.7996L20.5927 34.3379L16.813 34.9201C16.7493 34.9297 16.6862 34.9302 16.6225 34.9217C16.5588 34.9131 16.4973 34.896 16.4384 34.8703C16.3801 34.8441 16.326 34.8104 16.2768 34.7692C16.2276 34.728 16.1853 34.6804 16.15 34.6269C16.1147 34.5739 16.0874 34.5161 16.0681 34.4551C16.0494 34.3941 16.0393 34.3315 16.0382 34.2673C16.0371 34.2031 16.0451 34.1399 16.0623 34.0784C16.0788 34.0163 16.1045 33.9586 16.1382 33.904L20.758 26.413L16.829 27.1134C16.7648 27.1246 16.7001 27.1268 16.6353 27.1198C16.5706 27.1123 16.508 27.0963 16.448 27.0706C16.3881 27.0454 16.3325 27.0117 16.2822 26.9705C16.2319 26.9293 16.1885 26.8812 16.1522 26.8271C16.1158 26.7731 16.0879 26.7153 16.0687 26.6532C16.0489 26.5911 16.0387 26.5275 16.0382 26.4622C16.0371 26.3975 16.0457 26.3332 16.0633 26.2706C16.081 26.208 16.1072 26.1492 16.142 26.0941L22.4173 16.1722C22.4644 16.0968 22.5243 16.0336 22.5966 15.9823C22.6693 15.9309 22.7485 15.8956 22.8352 15.8758L32.8758 13.5637C32.9432 13.5482 33.0117 13.5434 33.0813 13.5493C33.1503 13.5547 33.2167 13.5707 33.2809 13.5969C33.3451 13.6231 33.4039 13.6585 33.4574 13.7029C33.5104 13.7473 33.5559 13.7986 33.5934 13.857C33.6308 13.9153 33.6581 13.9779 33.6763 14.0448C33.6939 14.1117 33.7014 14.1796 33.6982 14.2486C33.695 14.3177 33.6816 14.3851 33.6576 14.4498C33.634 14.5151 33.6008 14.575 33.558 14.6296L28.6343 20.9568Z" fill="black"/>
<path fill-rule="evenodd" clip-rule="evenodd" d="M27.2137 22.0554L29.8735 21.0563C29.9136 21.0397 29.9542 21.0375 29.9959 21.0482C30.0381 21.0595 30.0724 21.082 30.0993 21.1162C30.1273 21.1489 30.1436 21.1869 30.1478 21.2297C30.1521 21.2731 30.1436 21.3133 30.1225 21.3508L25.8808 28.9352L30.0851 27.8938C30.1278 27.8825 30.17 27.8852 30.2112 27.9018C30.2523 27.9184 30.2845 27.9457 30.3082 27.9837C30.3315 28.0218 30.342 28.0635 30.3389 28.108C30.3357 28.1529 30.3199 28.192 30.2914 28.2263L17.0577 44.3263C17.0418 44.3456 17.0228 44.3617 17.0012 44.374C16.9796 44.3868 16.9569 44.3949 16.9321 44.3986C16.9073 44.4024 16.883 44.4018 16.8588 44.397C16.8345 44.3917 16.8118 44.3825 16.7907 44.3692C16.7696 44.3552 16.7516 44.3386 16.7369 44.3183C16.7216 44.2985 16.7105 44.276 16.7036 44.2519C16.6968 44.2278 16.6941 44.2032 16.6962 44.178C16.6978 44.1528 16.7042 44.1288 16.7147 44.1063L21.4102 33.8521L16.8355 34.5653C16.7965 34.5718 16.7585 34.5669 16.7221 34.5503C16.6857 34.5343 16.6567 34.5091 16.635 34.4754C16.6123 34.4422 16.6002 34.4052 16.5997 34.3645C16.5986 34.3238 16.6092 34.2864 16.6308 34.2521L21.7241 25.8736L16.8413 26.756C16.8018 26.7635 16.7627 26.7587 16.7258 26.7426C16.6883 26.7265 16.6582 26.7014 16.6356 26.6676C16.6134 26.6334 16.6018 26.5959 16.6007 26.5547C16.6002 26.5134 16.6108 26.476 16.6324 26.4412L22.8205 16.512C22.8501 16.4633 22.8923 16.4328 22.9472 16.4199L32.8499 14.1063C32.8921 14.0967 32.9327 14.1004 32.9728 14.117C33.0124 14.1336 33.0441 14.1604 33.0673 14.1973C33.0905 14.2343 33.101 14.2744 33.0995 14.3178C33.0973 14.3617 33.0836 14.4008 33.0572 14.4356L27.2137 22.0554Z" fill="#F0D012"/>
<path fill-rule="evenodd" clip-rule="evenodd" d="M28.689 28.831L17.9642 41.7188L17.4268 42.3662L16.6187 44.1064C16.6081 44.1289 16.6022 44.1529 16.6001 44.1781C16.5985 44.2032 16.6011 44.2278 16.6081 44.2519C16.615 44.276 16.6262 44.2984 16.6412 44.3182C16.6566 44.3386 16.6748 44.3552 16.6956 44.3685C16.7063 44.3744 16.7169 44.3798 16.7276 44.3846C16.7692 44.4022 16.8125 44.4054 16.8562 44.3947C16.9 44.384 16.9368 44.361 16.9656 44.3263L30.1599 28.471L30.351 28.2399C30.3798 28.2057 30.3958 28.1666 30.399 28.1217C30.4022 28.0773 30.3921 28.0355 30.3681 27.9976C30.3446 27.9596 30.3115 27.9323 30.2699 27.9157C30.2288 27.8991 30.1861 27.8965 30.1429 27.9077L29.2836 28.1179L28.689 28.831Z" fill="#F47F39"/>
</svg>
