<svg width="209" height="219" viewBox="0 0 209 219" fill="none" xmlns="http://www.w3.org/2000/svg">
<path d="M189.979 200.002C189.979 200.064 148.117 200.117 96.4917 200.117C44.8661 200.117 2.99988 200.064 2.99988 200.002C2.99988 199.941 44.8529 199.888 96.4917 199.888C148.131 199.888 189.979 199.936 189.979 200.002Z" fill="black"/>
<path d="M189.979 180.546C189.979 180.612 148.117 180.665 96.4917 180.665C44.8661 180.665 2.99988 180.612 2.99988 180.546C2.99988 180.479 44.8529 180.431 96.4917 180.431C148.131 180.431 189.979 180.488 189.979 180.546Z" fill="black"/>
<path d="M189.979 159.842C189.979 159.909 148.117 159.957 96.4917 159.957C44.8661 159.957 2.99988 159.909 2.99988 159.842C2.99988 159.776 44.8484 159.714 96.4917 159.714C148.135 159.714 189.979 159.781 189.979 159.842Z" fill="black"/>
<path d="M189.979 140.39C189.979 140.452 148.117 140.505 96.4917 140.505C44.8661 140.505 2.99988 140.452 2.99988 140.39C2.99988 140.328 44.8484 140.266 96.4917 140.266C148.135 140.266 189.979 140.324 189.979 140.39Z" fill="black"/>
<path d="M189.979 119.682C189.979 119.749 148.117 119.802 96.4917 119.802C44.8661 119.802 2.99988 119.749 2.99988 119.682C2.99988 119.616 44.8529 119.567 96.4917 119.567C148.131 119.567 189.979 119.62 189.979 119.682Z" fill="black"/>
<path d="M189.979 100.23C189.979 100.292 148.117 100.345 96.4917 100.345C44.8661 100.345 2.99988 100.292 2.99988 100.23C2.99988 100.168 44.8529 100.115 96.4917 100.115C148.131 100.115 189.979 100.168 189.979 100.23Z" fill="black"/>
<path d="M189.979 79.5265C189.979 79.5884 148.117 79.6414 96.4917 79.6414C44.8661 79.6414 2.99988 79.5884 2.99988 79.5265C2.99988 79.4646 44.8529 79.4116 96.4917 79.4116C148.131 79.4116 189.979 79.4602 189.979 79.5265Z" fill="black"/>
<path d="M189.979 59.1149C189.979 59.1812 148.117 59.2299 96.4917 59.2299C44.8661 59.2299 2.99988 59.1812 2.99988 59.1149C2.99988 59.0486 44.8529 59 96.4917 59C148.131 59 189.979 59.0531 189.979 59.1149Z" fill="black"/>
<path d="M167.335 209.939C165.574 209.162 163.648 208.831 161.728 208.974C159.807 209.117 157.952 209.731 156.325 210.761C155.893 207.739 154.791 204.852 153.101 202.31C151.41 199.768 149.174 197.636 146.554 196.069C143.934 194.501 140.998 193.539 137.959 193.251C134.919 192.964 131.855 193.359 128.987 194.407C128.479 190.949 127.147 187.664 125.103 184.829C123.059 181.994 120.364 179.691 117.244 178.116C114.125 176.54 110.672 175.738 107.177 175.776C103.682 175.815 100.248 176.692 97.1634 178.336C95.1086 176.714 92.7094 175.585 90.1501 175.035C87.5908 174.485 84.9396 174.529 82.4 175.164C79.8604 175.799 77.5001 177.007 75.5004 178.696C73.5007 180.385 71.9148 182.51 70.8644 184.908C68.1237 182.508 64.7816 180.898 61.1962 180.252C57.6107 179.606 53.9171 179.948 50.5109 181.24C47.1047 182.533 44.1143 184.728 41.8601 187.59C39.6059 190.452 38.1728 193.873 37.7144 197.487C35.146 196.645 32.4216 196.389 29.7411 196.736C27.0605 197.083 24.4915 198.025 22.2223 199.494C17.7183 202.478 13.0243 211.614 12.5823 216.993L173.351 217.802C172.812 214.005 170.818 211.521 167.335 209.939Z" fill="#F5F5F5"/>
<path d="M0 213.447C34.0037 214.847 67.5828 205.487 95.9588 186.698C124.06 167.985 140.243 137.079 151.888 105.389L175.45 113.476C175.45 113.476 160.511 185.066 119.681 218.146H0V213.447Z" fill="#017858"/>
<g opacity="0.6">
<path d="M0 213.447C34.0037 214.847 67.5828 205.487 95.9588 186.698C124.06 167.985 140.243 137.079 151.888 105.389L175.45 113.476C175.45 113.476 160.511 188.351 119.681 218.146H0V213.447Z" fill="white"/>
</g>
<path d="M149.224 113.78C149.399 113.842 149.327 114.529 149.027 115.784C148.878 116.409 148.671 117.178 148.413 118.082L147.979 119.533C147.814 120.049 147.618 120.566 147.411 121.165C146.998 122.311 146.533 123.586 146.007 124.975C145.48 126.365 144.803 127.831 144.117 129.422C143.43 131.012 142.567 132.675 141.731 134.451C140.894 136.227 139.851 138.04 138.803 139.961L138.003 141.417C137.708 141.897 137.419 142.383 137.12 142.873L135.297 145.873L134.827 146.643L134.311 147.402L133.278 148.951C132.581 149.984 131.899 151.047 131.145 152.096C129.596 154.161 128.093 156.366 126.338 158.483C125.475 159.552 124.628 160.668 123.704 161.737C122.78 162.805 121.84 163.885 120.885 164.979L120.167 165.806L119.413 166.606L117.91 168.207L116.361 169.839C115.845 170.386 115.292 170.871 114.75 171.434C113.655 172.493 112.571 173.582 111.435 174.641L107.934 177.78C102.993 182.055 97.7782 186.003 92.3238 189.6C81.7642 196.492 70.4289 202.115 58.5526 206.352L54.4938 207.751L50.4919 208.965L48.5297 209.553L46.5777 210.07L42.7669 211.046C41.5121 211.335 40.2676 211.562 39.0541 211.846C37.8406 212.13 36.6478 212.362 35.4394 212.553L31.9745 213.127C31.4065 213.214 30.8488 213.323 30.2911 213.395L28.6439 213.591C26.4648 213.844 24.3993 214.108 22.4473 214.232C20.4954 214.356 18.6313 214.536 16.8911 214.531C15.1509 214.526 13.5398 214.609 12.0526 214.588C10.5655 214.567 9.20738 214.474 7.98872 214.412C7.3794 214.376 6.80621 214.356 6.26918 214.309L4.75619 214.134C3.82154 214.02 3.03665 213.906 2.4015 213.798C1.13121 213.586 0.470241 213.38 0.480569 213.194C0.490897 213.008 1.17252 212.853 2.44281 212.719C3.08312 212.652 3.86802 212.59 4.79233 212.533L6.28467 212.46L7.98356 212.316C9.18156 212.22 10.5087 212.121 11.9648 212.022C13.4159 211.892 14.9908 211.701 16.6794 211.536C18.3679 211.371 20.1649 211.082 22.0704 210.829C23.9758 210.576 25.9949 210.163 28.0604 209.822L29.656 209.538C30.1724 209.44 30.7301 209.311 31.2723 209.192L34.6184 208.469C35.7596 208.247 36.9008 207.921 38.073 207.627L41.6515 206.708L45.3126 205.629L47.1871 205.076L49.0719 204.446L52.9189 203.16L56.8227 201.699C68.2229 197.333 79.1279 191.769 89.3546 185.103C94.6176 181.633 99.6698 177.853 104.485 173.784L107.908 170.799C109.018 169.792 110.082 168.733 111.161 167.752C111.678 167.236 112.241 166.761 112.747 166.239C113.253 165.718 113.779 165.207 114.265 164.69L115.773 163.141L116.521 162.387L117.234 161.607L120.043 158.535C120.967 157.502 121.814 156.469 122.682 155.437C124.448 153.438 125.987 151.357 127.556 149.405C128.326 148.419 129.028 147.402 129.746 146.431L130.81 144.985L131.326 144.267L131.842 143.544L133.758 140.71L134.688 139.341L135.545 137.968C136.67 136.155 137.796 134.456 138.731 132.773C139.665 131.089 140.652 129.556 141.426 128.043C142.201 126.53 142.975 125.151 143.683 123.87C144.39 122.59 144.938 121.371 145.49 120.302C145.769 119.786 146.007 119.269 146.275 118.789C146.544 118.309 146.729 117.865 146.931 117.447C147.344 116.615 147.711 115.898 148.02 115.381C148.635 114.276 149.048 113.718 149.224 113.78Z" fill="#017858"/>
<path d="M150.524 124.795C148.108 127.524 146.254 130.704 145.071 134.152C144.906 134.644 144.9 135.176 145.054 135.673C145.209 136.169 145.515 136.604 145.931 136.916C146.346 137.228 146.85 137.401 147.369 137.411C147.889 137.421 148.398 137.267 148.825 136.971L148.877 136.935C147.192 141.064 145.78 145.298 144.648 149.612C144.487 150.217 144.517 150.857 144.733 151.444C144.949 152.031 145.34 152.538 145.854 152.895C146.368 153.252 146.979 153.443 147.605 153.44C148.231 153.437 148.841 153.242 149.352 152.881C158.558 146.355 165.084 136.712 167.72 125.74L150.524 124.795Z" fill="#017858"/>
<g opacity="0.3">
<path d="M151.346 129.225C150.902 129.667 150.551 130.194 150.314 130.774C150.2 131.065 150.174 131.382 150.237 131.687C150.3 131.992 150.451 132.273 150.67 132.494C151.377 133.093 152.591 132.732 153.252 133.367C153.913 134.002 153.541 135.231 153.071 136.098L151.584 138.851C151.222 139.522 150.866 140.4 151.336 140.999C151.806 141.598 152.916 141.433 153.675 141.05C155.425 140.14 156.929 138.819 158.056 137.2C159.183 135.581 159.9 133.713 160.145 131.756L151.346 129.225Z" fill="black"/>
</g>
<path d="M192.294 92.2989L192.434 92.5003C196.392 98.4186 198.971 105.15 199.981 112.198C200.991 119.246 200.406 126.43 198.269 133.222L195.558 141.851L182.158 124.567L192.294 92.2989Z" fill="#017858"/>
<path d="M192.295 92.2991L192.249 92.4591L192.104 92.9291C191.975 93.3422 191.794 93.9618 191.557 94.7157C191.071 96.2649 190.369 98.5473 189.491 101.403C187.715 107.083 185.216 115.154 182.262 124.599V124.485L194.479 140.235L195.662 141.784L195.43 141.83C195.973 140.109 196.507 138.413 197.03 136.744C197.547 135.071 198.099 133.429 198.538 131.802C199.419 128.679 199.979 125.475 200.211 122.239C200.425 119.313 200.359 116.374 200.015 113.46C199.891 112.087 199.623 110.785 199.411 109.531C199.199 108.276 198.894 107.083 198.543 105.973C197.545 102.418 196.133 98.9936 194.335 95.7691C193.736 94.6124 193.163 93.7811 192.817 93.1872L192.274 92.2939C192.274 92.2939 192.326 92.3559 192.435 92.5056L192.858 93.1563C193.219 93.7398 193.813 94.566 194.407 95.7382C196.235 98.9501 197.669 102.371 198.678 105.926C199.039 107.042 199.271 108.25 199.571 109.494C199.788 110.754 200.061 112.076 200.191 113.44C200.548 116.362 200.622 119.312 200.413 122.249C200.187 125.504 199.629 128.727 198.75 131.869C198.311 133.511 197.753 135.143 197.242 136.816C196.731 138.489 196.209 140.183 195.646 141.902L195.569 142.15L195.409 141.944C195.037 141.464 194.629 140.942 194.226 140.395L182.019 124.635L181.983 124.583V124.521L189.367 101.258C190.271 98.4285 190.983 96.1822 191.479 94.6331C191.722 93.874 191.913 93.2905 192.042 92.8826L192.269 92.4282C192.274 92.3845 192.283 92.3413 192.295 92.2991Z" fill="#263238"/>
<path d="M143.358 76.9368L143.126 77.0245C136.586 79.5815 130.703 83.574 125.912 88.7075C121.121 93.8411 117.543 99.9847 115.443 106.685L112.773 115.195L133.361 108.761L143.358 76.9368Z" fill="#017858"/>
<path d="M143.357 76.9368C143.357 76.9368 143.357 76.9833 143.315 77.0814C143.274 77.1795 143.238 77.3396 143.181 77.5255C143.057 77.9283 142.876 78.5118 142.665 79.2605L140.63 85.8031L133.489 108.787V108.854H133.427L114.661 114.731L112.839 115.299L112.596 115.376L112.673 115.128L114.223 110.114C114.739 108.467 115.224 106.835 115.772 105.26C116.833 102.221 118.2 99.297 119.851 96.5334C121.342 94.038 123.071 91.693 125.015 89.5313C125.898 88.4986 126.853 87.5846 127.741 86.6861C128.63 85.7876 129.554 85.0027 130.473 84.3004C133.297 81.9988 136.388 80.0465 139.68 78.486C140.826 77.8973 141.746 77.5668 142.391 77.2983L143.104 77.0091L143.357 76.9265L142.412 77.3448C141.797 77.6288 140.863 77.9747 139.726 78.5737C136.463 80.1744 133.398 82.1499 130.592 84.4605C129.683 85.1679 128.815 86.0096 127.881 86.8513C126.946 87.693 126.053 88.6535 125.18 89.6914C123.257 91.8508 121.547 94.1905 120.073 96.678C118.441 99.4222 117.088 102.323 116.035 105.338C115.472 106.887 115.002 108.544 114.486 110.186C113.969 111.829 113.453 113.512 112.937 115.206L112.771 115.035L114.594 114.467L133.365 108.612L133.282 108.694C136.231 99.3993 138.751 91.4729 140.511 85.8599C141.405 83.0507 142.117 80.82 142.608 79.2812C142.851 78.5221 143.042 77.9334 143.171 77.5255C143.233 77.3293 143.284 77.1795 143.32 77.0659C143.329 77.0221 143.341 76.9789 143.357 76.9368Z" fill="#263238"/>
<path d="M194.335 0.12535C190.462 -1.08814 180.196 6.68853 168.325 21.3382C156.639 35.7658 151.801 50.0437 151.801 50.0437L129.188 122.042L148.16 128.002L159.154 131.451L178.126 137.41L198.646 72.0776C200.66 65.6953 202.059 59.1349 202.824 52.4862C203.61 45.8212 203.86 39.104 203.573 32.3991C202.633 13.6442 198.233 1.34401 194.355 0.12535" fill="white"/>
<path d="M194.335 0.12532L194.505 0.187285L194.717 0.269906L194.991 0.424821C195.581 0.811211 196.098 1.30101 196.514 1.87068C197.655 3.34236 198.879 5.83647 199.948 9.21359C201.206 13.3452 202.113 17.5756 202.659 21.8597C203.005 24.3693 203.284 27.0648 203.48 29.9411C203.676 32.8173 203.795 35.8639 203.759 39.0706C203.723 42.2774 203.552 45.639 203.243 49.14C202.933 52.7875 202.44 56.4171 201.766 60.015C201.031 63.8822 200.083 67.7058 198.926 71.4683C197.71 75.3446 196.459 79.3396 195.172 83.4534C190.008 99.8846 184.302 118.097 178.229 137.451L178.193 137.58L178.064 137.539L153.598 129.855L129.127 122.166L128.998 122.13L129.039 122.001C135.122 102.647 140.849 84.4346 146.017 68.0034C147.308 63.893 148.563 59.8997 149.782 56.0234C150.391 54.0887 150.992 52.1815 151.584 50.3019C152.219 48.4326 152.978 46.6511 153.753 44.9161C156.65 38.5124 160.146 32.3971 164.194 26.6517C167.564 21.9884 171.23 17.5454 175.167 13.3498C178.094 10.1676 181.256 7.21069 184.627 4.50422C187.41 2.31477 189.791 0.920544 191.583 0.337036C192.245 0.0996965 192.945 -0.0140718 193.648 0.0013884L193.958 0.0272089L194.18 0.0788461L194.351 0.12532L194.175 0.0943368L193.958 0.0478626L193.648 0.022044C192.944 0.0187258 192.244 0.141133 191.583 0.38351C189.827 0.977346 187.452 2.3819 184.668 4.58167C181.327 7.29327 178.191 10.2481 175.286 13.4221C171.374 17.6314 167.733 22.0847 164.385 26.755C160.354 32.4954 156.873 38.6037 153.99 44.9987C153.221 46.7337 152.441 48.5152 151.837 50.369L150.04 56.0905C148.825 59.9668 147.573 63.9618 146.286 68.0757C141.122 84.5068 135.442 102.725 129.338 122.084L129.251 121.913L153.701 129.607L178.167 137.296L177.997 137.384L194.97 83.3915L198.735 71.4166C199.888 67.6591 200.833 63.8407 201.564 59.9788C202.282 56.2506 202.737 52.6204 203.057 49.1349C203.377 45.6493 203.542 42.2825 203.573 39.0758C203.604 35.8691 203.511 32.8328 203.315 29.9617C203.119 27.0906 202.85 24.3951 202.509 21.8907C201.976 17.6117 201.085 13.3849 199.845 9.25491C198.812 5.87779 197.588 3.38367 196.463 1.91199C196.053 1.342 195.546 0.848993 194.965 0.455803L194.697 0.295726L194.49 0.213104L194.335 0.12532Z" fill="#263238"/>
<path d="M189.418 69.6231C200.233 63.7998 204.279 50.3119 198.456 39.4969C192.633 28.682 179.145 24.6354 168.33 30.4587C157.515 36.2819 153.468 49.7699 159.292 60.5848C165.115 71.3998 178.603 75.4464 189.418 69.6231Z" fill="white"/>
<path d="M196.301 39.494C196.175 39.5067 196.048 39.4938 195.926 39.4558C195.805 39.4179 195.693 39.3558 195.596 39.2733C195.5 39.1907 195.421 39.0895 195.365 38.9757C195.308 38.8618 195.276 38.7378 195.269 38.611C195.257 38.1029 195.429 37.6078 195.754 37.2168C196.075 36.8277 196.347 36.4012 196.565 35.9465C196.719 35.5126 196.73 35.0408 196.596 34.6003C196.462 34.1597 196.191 33.7737 195.821 33.4988C196.069 33.3904 196.292 33.2331 196.477 33.0364C196.663 32.8396 196.807 32.6075 196.9 32.3539C196.994 32.1003 197.035 31.8304 197.022 31.5604C197.009 31.2905 196.941 31.0259 196.823 30.7827C196.533 30.3621 196.205 29.9696 195.842 29.6105C195.659 29.3837 195.498 29.1399 195.362 28.8824C195.697 29.0855 196.072 29.2157 196.462 29.2645C196.779 29.2928 197.098 29.2403 197.39 29.1121C197.681 28.984 197.936 28.7841 198.129 28.5313C198.317 28.2737 198.428 27.9688 198.451 27.6512C198.474 27.3336 198.407 27.0159 198.259 26.7343C198.104 26.4554 197.868 26.231 197.581 26.0914C197.295 25.9519 196.972 25.9041 196.658 25.9545C196.057 26.131 195.528 26.4924 195.145 26.9873L194.752 27.4159C194.319 26.1972 193.936 24.9631 192.899 24.2556C191.959 23.6153 190.735 23.6153 189.676 23.2229C188.907 22.9182 188.241 22.3967 187.482 22.061C186.723 21.7254 185.773 21.6169 185.112 22.1127C184.719 22.4018 184.482 22.8614 184.079 23.1454C183.268 23.7393 182.013 23.4604 181.28 24.1472C180.686 24.7101 180.707 25.6602 180.304 26.3676C179.901 27.0751 178.992 27.5295 178.239 27.9891C177.485 28.4486 176.72 29.1716 176.788 30.0546C176.844 30.8292 177.536 31.4591 177.583 32.2389C177.531 32.8054 177.373 33.3572 177.118 33.8655C176.937 34.3818 176.953 35.1203 177.443 35.4146L182.969 38.895C184.776 40.3925 186.645 41.921 188.886 42.6233C191.127 43.3255 193.859 43.0002 195.388 41.2187C195.065 41.1008 194.799 40.8645 194.644 40.5577C194.983 40.5169 195.308 40.4 195.595 40.2158C195.882 40.0316 196.123 39.7848 196.301 39.494Z" fill="#263238"/>
<path d="M190.771 39.8296C191.784 38.4838 192.679 37.0533 193.446 35.554C194.214 34.0459 194.595 32.371 194.556 30.6794C194.556 30.4263 194.303 28.6655 194.04 28.6138C193.864 28.5777 193.859 30.163 193.725 30.2663C192.472 31.4941 191.62 33.0731 191.282 34.7949C190.922 36.4485 190.749 38.1373 190.766 39.8296" fill="#263238"/>
<path d="M181.1 51.9853C185.577 53.5345 188.298 47.6891 188.298 47.6891L192.853 33.7468C194.247 29.7604 193.09 25.6242 189.068 24.3384L188.691 24.2403C186.852 23.7686 184.903 24.0066 183.233 24.9071C181.562 25.8076 180.291 27.3044 179.675 29.0994C178.482 32.5643 177.211 36.401 176.747 38.3065C175.791 42.2464 179.561 43.8627 179.561 43.8627C179.561 43.8627 179.303 44.7612 178.957 45.9024C178.182 48.4843 178.797 51.469 179.819 51.6962L181.1 51.9853Z" fill="#A97663"/>
<path d="M179.561 43.8885C181.376 44.3474 183.284 44.2775 185.06 43.6871C185.06 43.6871 183.083 46.2225 179.256 44.8644L179.561 43.8885Z" fill="#896357"/>
<path d="M180.392 32.5279C180.352 32.6736 180.372 32.8291 180.446 32.9605C180.521 33.0919 180.644 33.1887 180.789 33.2296C180.859 33.2537 180.933 33.2636 181.007 33.2587C181.08 33.2537 181.152 33.2341 181.218 33.2009C181.284 33.1677 181.343 33.1216 181.39 33.0654C181.438 33.0092 181.474 32.944 181.496 32.8736C181.536 32.7278 181.517 32.5723 181.442 32.4409C181.368 32.3095 181.244 32.2128 181.099 32.1718C181.029 32.1477 180.955 32.1378 180.882 32.1428C180.808 32.1477 180.736 32.1674 180.67 32.2005C180.605 32.2337 180.546 32.2798 180.498 32.336C180.45 32.3922 180.414 32.4575 180.392 32.5279Z" fill="#263238"/>
<path d="M180.093 30.9479C180.144 31.0409 180.65 30.8343 181.255 30.9893C181.859 31.1442 182.22 31.5624 182.287 31.5056C182.354 31.4488 182.287 31.3301 182.132 31.139C181.919 30.8861 181.632 30.7057 181.311 30.6226C180.998 30.5425 180.668 30.5624 180.366 30.6794C180.165 30.793 180.067 30.9066 180.093 30.9479Z" fill="#263238"/>
<path d="M185.788 34.1544C185.749 34.3001 185.769 34.455 185.844 34.5861C185.918 34.7171 186.04 34.8141 186.185 34.8562C186.255 34.8803 186.329 34.8901 186.402 34.8852C186.476 34.8803 186.548 34.8606 186.614 34.8274C186.68 34.7942 186.738 34.7482 186.786 34.692C186.834 34.6357 186.87 34.5705 186.892 34.5001C186.932 34.3551 186.913 34.2002 186.84 34.0689C186.766 33.9376 186.644 33.8404 186.5 33.7984C186.43 33.7742 186.355 33.7643 186.281 33.7691C186.207 33.774 186.135 33.7936 186.069 33.8268C186.003 33.8599 185.944 33.906 185.895 33.9622C185.847 34.0185 185.81 34.0838 185.788 34.1544Z" fill="#263238"/>
<path d="M185.944 32.7088C185.996 32.7966 186.502 32.5952 187.101 32.7501C187.7 32.905 188.072 33.3181 188.134 33.2665C188.196 33.2148 188.134 33.0961 187.979 32.905C187.769 32.6504 187.483 32.4694 187.163 32.3886C186.85 32.303 186.518 32.3229 186.218 32.4454C186.017 32.5281 185.919 32.6675 185.944 32.7088Z" fill="#263238"/>
<path d="M182.592 36.7881C182.298 36.61 181.985 36.4662 181.658 36.3595C181.508 36.3079 181.369 36.2356 181.369 36.1272C181.397 35.9635 181.475 35.8124 181.591 35.6934L182.345 34.6606C183.023 33.7745 183.629 32.8351 184.157 31.8515C183.409 32.6809 182.729 33.5684 182.122 34.5057L181.384 35.5746C181.24 35.7358 181.158 35.9424 181.152 36.1581C181.159 36.2191 181.181 36.2775 181.215 36.3287C181.249 36.3798 181.294 36.4222 181.348 36.4525C181.427 36.4951 181.51 36.5297 181.596 36.5557C181.917 36.6751 182.252 36.7532 182.592 36.7881Z" fill="#263238"/>
<path d="M184.26 37.6609C184.162 37.6299 183.996 38.2857 183.315 38.6059C182.633 38.926 181.957 38.6782 181.926 38.766C181.895 38.8538 182.05 38.9364 182.344 39.019C182.726 39.1215 183.132 39.0868 183.49 38.9209C183.837 38.7607 184.107 38.4718 184.244 38.1153C184.337 37.852 184.306 37.6919 184.26 37.6609Z" fill="#263238"/>
<path d="M186.588 30.2664C186.588 30.4471 187.229 30.5246 187.915 30.7827C188.602 31.0409 189.124 31.3921 189.253 31.2681C189.382 31.1442 189.253 31.0306 189.062 30.8086C188.808 30.5321 188.491 30.3212 188.138 30.1941C187.787 30.0562 187.407 30.0048 187.032 30.0443C186.759 30.0856 186.588 30.1837 186.588 30.2664Z" fill="#263238"/>
<path d="M180.857 29.0064C180.929 29.1716 181.373 29.1355 181.889 29.2594C182.406 29.3833 182.788 29.5847 182.922 29.466C183.056 29.3472 182.948 29.2542 182.798 29.0787C182.592 28.8559 182.321 28.7026 182.024 28.6398C181.73 28.5682 181.42 28.5917 181.141 28.7069C180.908 28.7998 180.826 28.9134 180.857 29.0064Z" fill="#263238"/>
<path d="M191.788 36.5764C191.86 36.5764 194.69 36.468 193.916 39.1583C193.141 41.8487 190.631 40.4957 190.647 40.4183C190.662 40.3408 191.788 36.5764 191.788 36.5764Z" fill="#A97663"/>
<path d="M191.753 39.618C191.753 39.618 191.789 39.6644 191.856 39.7212C191.955 39.798 192.078 39.8365 192.202 39.8297C192.512 39.8297 192.879 39.4321 193.034 38.957C193.107 38.7305 193.128 38.4905 193.096 38.2547C193.096 38.1642 193.074 38.075 193.031 37.9949C192.989 37.9149 192.928 37.8463 192.853 37.7951C192.803 37.7666 192.745 37.7556 192.688 37.764C192.63 37.7725 192.578 37.7998 192.538 37.8416C192.481 37.9088 192.486 37.9656 192.471 37.9656C192.455 37.9656 192.424 37.9036 192.471 37.8003C192.507 37.7405 192.561 37.6936 192.626 37.6661C192.715 37.6299 192.815 37.6299 192.905 37.6661C193.008 37.7188 193.095 37.7975 193.159 37.8944C193.222 37.9913 193.259 38.103 193.266 38.2186C193.313 38.4823 193.295 38.7532 193.215 39.0086C193.039 39.525 192.621 39.9639 192.182 39.9639C192.104 39.9636 192.028 39.9458 191.958 39.9118C191.888 39.8778 191.827 39.8286 191.779 39.7677C191.753 39.6851 191.753 39.618 191.753 39.618Z" fill="#896357"/>
<path d="M182.711 25.2214C182.354 24.8547 184.058 23.8478 185.262 23.6722C187.074 23.4295 189.646 23.7135 190.993 24.5707C192.61 25.6035 193.818 26.9306 194.226 28.8102C194.587 30.7082 194.439 32.6681 193.797 34.4904C193.648 35.0602 193.35 35.5804 192.935 35.9982C192.388 36.4733 191.567 36.6282 191.355 37.4492C191.285 37.7505 191.1 38.0122 190.838 38.1773C190.193 38.5491 189.749 37.883 189.62 37.315C189.346 36.1015 189.656 34.8415 189.961 33.6332C190.132 32.7624 190.445 31.9253 190.885 31.1546C191.148 30.7518 191.484 30.3955 191.727 29.9824C191.859 29.7803 191.946 29.552 191.981 29.3131C192.017 29.0742 192.001 28.8304 191.933 28.5985C191.893 28.4989 191.843 28.4037 191.783 28.3145C191.511 27.8815 191.128 27.5286 190.674 27.2918C190.221 27.0551 189.713 26.9429 189.201 26.9667C187.549 27.0494 184.761 27.07 184.244 26.3626C183.862 25.9104 183.581 25.3824 183.418 24.8134L182.711 25.2214Z" fill="#263238"/>
<path d="M190.963 24.1833C190.314 23.7081 189.576 23.3663 188.793 23.1775C188.011 22.9887 187.199 22.9568 186.404 23.0834C185.98 23.1427 185.572 23.2872 185.206 23.5082C184.839 23.7292 184.521 24.0221 184.271 24.3692C184.033 24.7245 183.928 25.1522 183.974 25.5772C184.021 26.0021 184.215 26.3972 184.524 26.6929L184.565 26.7394C185.598 27.4623 186.368 27.5295 187.612 27.4778C188.645 27.4314 189.678 27.1009 190.71 27.0647C191.833 27.0249 192.943 27.3216 193.896 27.9168C193.262 26.4369 192.251 25.1495 190.963 24.1833Z" fill="#263238"/>
<path d="M195.171 28.3971C195.14 28.3971 195.006 28.0873 194.654 27.6536C194.458 27.4024 194.235 27.1738 193.988 26.9719C193.688 26.7231 193.335 26.5465 192.955 26.4556C192.264 26.3235 191.548 26.386 190.89 26.6363C190.374 26.8325 190.105 27.0442 190.084 27.0184C190.064 26.9926 190.141 26.9461 190.265 26.8532C190.442 26.7189 190.635 26.6062 190.838 26.5175C191.521 26.214 192.28 26.1292 193.012 26.2748C193.416 26.3737 193.79 26.5686 194.102 26.8428C194.356 27.055 194.578 27.3018 194.763 27.5761C194.955 27.8178 195.095 28.0976 195.171 28.3971Z" fill="#455A64"/>
<path d="M195.14 29.3988C195.033 29.6522 194.885 29.8861 194.701 30.0908C194.281 30.6059 193.774 31.0443 193.204 31.3869C192.633 31.7278 192.008 31.9688 191.355 32.0995C191.089 32.1681 190.813 32.1873 190.539 32.1563C191.445 31.9879 192.317 31.674 193.121 31.2268C193.886 30.7275 194.568 30.1106 195.14 29.3988Z" fill="#455A64"/>
<path d="M196.08 30.163C196.069 30.2683 196.041 30.3712 195.997 30.4677C195.894 30.737 195.769 30.9977 195.625 31.2474C195.139 32.0707 194.46 32.7636 193.647 33.2665C192.833 33.766 191.906 34.0553 190.952 34.1082C190.665 34.1339 190.376 34.1339 190.09 34.1082C189.984 34.103 189.879 34.0822 189.78 34.0462C189.78 34.0101 190.229 34.0462 190.942 33.9997C191.866 33.9107 192.759 33.6118 193.551 33.1259C194.343 32.64 195.013 31.9799 195.512 31.1958C195.883 30.5761 196.049 30.1527 196.08 30.163Z" fill="#455A64"/>
<path d="M188.01 22.9906C187.749 23.0204 187.487 23.036 187.225 23.037C185.969 23.1291 184.773 23.6131 183.806 24.4209C183.44 24.7256 183.238 24.9373 183.218 24.9373C183.352 24.7045 183.527 24.4981 183.734 24.328C184.684 23.4389 185.93 22.9346 187.23 22.9131C187.493 22.8949 187.756 22.9211 188.01 22.9906Z" fill="#455A64"/>
<path d="M198.13 26.5381C197.873 27.0551 197.48 27.492 196.993 27.8015C196.506 28.111 195.944 28.2813 195.367 28.2938C195.905 28.1316 196.424 27.9135 196.916 27.6432C197.357 27.3173 197.764 26.947 198.13 26.5381Z" fill="#455A64"/>
<path d="M198.058 53.6996C196.947 51.3398 188.763 47.5702 188.763 47.5702C187.991 48.8986 186.922 50.0299 185.639 50.875C183.573 52.1608 181.131 51.7012 179.287 50.3122C177.547 48.9954 178.146 46.4238 178.146 46.4238C178.146 46.4238 169.146 45.9694 166.553 47.3843C163.961 48.7992 162.515 52.9457 162.515 52.9457L159.278 60.2886L162.68 65.2665L164.173 66.7124C164.173 66.7124 168.113 70.7246 175.383 71.9794C182.169 73.1516 188.055 70.2651 188.055 70.2651C191.67 69.0516 194.825 66.134 197.727 62.1166C197.737 62.1321 199.349 56.4674 198.058 53.6996Z" fill="#455A64"/>
<path d="M162.551 48.6649C162.551 48.6649 164.668 46.0107 164.834 44.947L165.67 39.2668C165.67 39.2668 165.36 38.6265 164.555 39.3546C163.749 40.0827 163.94 41.4821 163.94 41.4821L163.264 42.6801L162.877 41.5182L163.176 37.6454C163.176 37.6454 163.455 34.8621 162.964 35.017C162.474 35.1719 162.138 35.9104 162.014 37.1135C161.89 38.3167 161.746 39.8348 161.746 39.8348C161.746 39.8348 161.668 40.3047 161.462 39.4217C161.255 38.5387 161.704 35.2184 161.663 34.7433C161.622 34.2683 161.885 33.1064 161.219 32.9825C160.553 32.8586 160.512 34.418 160.512 34.418L159.784 39.3133C159.784 39.3133 159.716 37.2478 159.696 36.8863C159.675 36.5249 159.789 35.4405 159.732 34.8208C159.675 34.2011 159.427 33.788 159.128 33.7571C158.988 33.7252 158.842 33.7482 158.719 33.8212C158.596 33.8943 158.506 34.0118 158.467 34.1495L158.276 38.4613C158.276 38.4613 158.276 40.4545 158.214 40.5578C158.152 40.661 157.697 39.587 157.697 39.587L157.553 38.1308C157.553 38.1308 157.656 36.1531 157.171 35.9568C156.685 35.7606 156.561 36.1324 156.561 36.1324L156.406 39.7471L156.809 44.0175L157.78 48.3138L159.36 48.6236L162.551 48.6649Z" fill="#A97663"/>
<path d="M158.704 45.4376C158.957 45.1898 159.192 44.924 159.407 44.6424C159.918 43.9883 160.654 43.5483 161.472 43.4082C161.87 43.3547 162.275 43.4385 162.619 43.6457L162.732 43.718L162.804 43.5889C163.114 43.0209 163.465 42.52 163.662 42.1586C163.858 41.7971 163.971 41.5699 163.94 41.5596C163.785 41.7152 163.648 41.8885 163.533 42.0759C163.189 42.531 162.868 43.0032 162.572 43.4908L162.758 43.434C162.368 43.1862 161.904 43.0821 161.446 43.1397C160.952 43.1949 160.483 43.3842 160.088 43.687C159.776 43.9266 159.496 44.2062 159.257 44.5184C159.02 44.7895 158.832 45.1008 158.704 45.4376Z" fill="#896357"/>
<path d="M177.986 46.429L179.287 44.3893L182.67 48.8302L182.298 50.8286L183.103 48.9076L189.217 45.3446L188.959 47.8955L186.191 51.4792L182.535 52.9974L179.84 51.9904C179.84 51.9904 177.738 51.2262 177.774 51.0558C177.81 50.8854 177.986 46.429 177.986 46.429Z" fill="#455A64"/>
<path d="M180.949 50.9318L181.259 52.6307L182.509 52.956L183.64 51.7012L183.356 50.2192L181.874 49.8061L180.949 50.9318Z" fill="#131313"/>
<path d="M182.67 48.8302C182.531 49.1107 182.358 49.3727 182.153 49.6099C181.797 50.0798 181.286 50.7356 180.687 51.4792L180.558 51.6393L180.47 51.4534C180.315 51.1229 180.15 50.7718 179.954 50.4206C179.437 49.3053 178.967 48.288 178.647 47.5444C178.451 47.1526 178.294 46.7428 178.177 46.3206C178.44 46.6722 178.663 47.0514 178.843 47.4515C179.21 48.1744 179.701 49.1813 180.222 50.2967L180.713 51.3295L180.491 51.3037C181.105 50.5704 181.642 49.9353 182.04 49.4963C182.223 49.25 182.434 49.0263 182.67 48.8302Z" fill="#263238"/>
<path d="M189.099 47.4413C188.77 47.8182 188.407 48.1639 188.015 48.474C187.323 49.0988 186.352 49.9509 185.273 50.8752L183.786 52.1506L183.62 52.2901L183.584 52.0783C183.419 51.1489 183.285 50.3588 183.197 49.7959C183.134 49.5024 183.103 49.2029 183.104 48.9026C183.222 49.1801 183.304 49.4717 183.347 49.7701C183.476 50.3226 183.641 51.1075 183.827 52.0319L183.626 51.9596L185.097 50.6841C186.177 49.7598 187.163 48.9336 187.891 48.3449C188.267 48.0093 188.671 47.707 189.099 47.4413Z" fill="#263238"/>
<path d="M202.23 63.1235L202.891 59.483C202.113 58.2522 201.182 57.126 200.118 56.1317C199.009 54.9826 197.537 54.2528 195.951 54.0662C193.885 53.9009 191.939 54.9853 190.235 56.1678C188.531 57.3503 186.857 58.6981 184.849 59.1938C184.088 59.4311 183.267 59.3871 182.535 59.0699C181.466 58.5225 181.038 57.1541 181.219 55.9716C181.485 54.7956 181.994 53.6878 182.711 52.7184L181.358 52.3001C180.526 53.4524 179.803 54.6798 179.2 55.9664C178.711 57.1071 178.606 58.3756 178.9 59.5811C179.194 60.4595 179.718 61.2427 180.419 61.8487C181.119 62.4546 181.97 62.8611 182.881 63.0253C184.719 63.3315 186.606 62.9902 188.221 62.0597C189.692 61.2748 191.025 60.144 192.651 59.7515C193.773 59.5169 194.94 59.6271 195.998 60.0676C197.056 60.5081 197.956 61.2584 198.579 62.2198L202.23 63.1235Z" fill="#131313"/>
<path d="M163.807 66.6091C163.734 66.6091 164.323 63.4695 165.087 59.6276C165.852 55.7858 166.564 52.6823 166.636 52.6978C166.709 52.7133 166.12 55.8374 165.351 59.6793C164.581 63.5211 163.869 66.6452 163.807 66.6091Z" fill="#263238"/>
<path d="M156.707 48.1951L163.673 48.7115L163.352 64.7761L163.265 65.8811C163.265 65.8811 157.528 59.5968 157.068 54.5208C156.97 53.4415 156.738 52.5843 156.681 51.8253C156.5 48.9955 156.707 48.1951 156.707 48.1951Z" fill="#455A64"/>
<path d="M163.242 64.5435C163.216 64.336 163.216 64.1261 163.242 63.9186C163.242 63.4642 163.268 62.8859 163.284 62.2249C163.32 60.7946 163.33 58.8117 163.351 56.6274C163.371 54.4431 163.407 52.455 163.485 51.0195C163.521 50.3069 163.557 49.7234 163.599 49.3258C163.602 49.1164 163.631 48.9082 163.686 48.7061C163.706 48.9139 163.706 49.1231 163.686 49.3309C163.686 49.7854 163.686 50.3637 163.686 51.0298C163.686 52.5222 163.65 54.4689 163.63 56.6274C163.609 58.7858 163.568 60.7997 163.485 62.2301C163.444 62.9479 163.402 63.5262 163.356 63.929C163.339 64.1371 163.3 64.3429 163.242 64.5435Z" fill="#263238"/>
<path d="M157.01 45.9539C157.018 46.007 157.018 46.061 157.01 46.114C157.01 46.2328 156.979 46.3877 156.958 46.5788C156.917 46.9867 156.824 47.6115 156.757 48.3654C156.521 52.0894 157.208 55.8141 158.755 59.2094C160.291 62.5559 162.636 65.4679 165.577 67.6832C167.236 68.9164 169.057 69.9155 170.989 70.6524C172.914 71.4023 174.939 71.8685 176.999 72.0363C178.916 72.2159 180.847 72.1325 182.741 71.7884C184.459 71.4924 186.134 70.9878 187.73 70.2857C188.454 69.9777 189.162 69.633 189.852 69.253C190.508 68.876 191.122 68.4732 191.7 68.0911C192.279 67.709 192.8 67.2907 193.25 66.8725C193.699 66.4542 194.174 66.0772 194.556 65.6796L195.625 64.5591L196.441 63.5521L196.787 63.1235L197.066 62.7259L197.494 62.1011L197.768 61.719C197.796 61.6729 197.829 61.6297 197.866 61.5899C197.866 61.5899 197.866 61.6415 197.789 61.7345L197.541 62.1269L197.128 62.7724L196.864 63.1804C196.756 63.3146 196.642 63.4644 196.523 63.6193L195.718 64.652L194.685 65.7881C194.303 66.196 193.838 66.573 193.379 67.0067C192.919 67.4405 192.346 67.8123 191.83 68.2512C191.313 68.6901 190.637 69.0516 189.976 69.4389C189.284 69.8351 188.57 70.192 187.838 70.5078C182.472 72.8775 176.387 73.0278 170.911 70.926C168.949 70.1758 167.1 69.1575 165.417 67.9001C162.444 65.656 160.083 62.7015 158.549 59.3075C157.004 55.8729 156.346 52.1049 156.638 48.3499C156.721 47.5754 156.835 46.9764 156.891 46.5684L156.964 46.1037C156.974 46.0523 156.99 46.0021 157.01 45.9539Z" fill="#263238"/>
<path d="M200.34 55.8427C200.36 55.5757 200.405 55.3112 200.474 55.0526C200.588 54.5362 200.712 53.8081 200.825 52.8993C201.109 50.5159 201.019 48.1028 200.557 45.7474C200.294 44.4551 199.928 43.1859 199.462 41.9521C199.066 40.9491 198.605 39.9728 198.083 39.0293C197.871 38.6214 197.644 38.2703 197.453 37.9604C197.262 37.6506 197.092 37.3821 196.937 37.1704C196.777 36.9542 196.634 36.7263 196.508 36.4888C196.699 36.6794 196.871 36.8868 197.025 37.1084C197.221 37.355 197.403 37.6118 197.572 37.8778C197.778 38.1825 198.016 38.5285 198.243 38.9106C198.795 39.848 199.276 40.8249 199.684 41.8333C200.172 43.0773 200.552 44.3609 200.82 45.67C201.288 48.0521 201.352 50.4958 201.011 52.8993C200.909 53.6237 200.763 54.3411 200.572 55.0474C200.518 55.3189 200.441 55.585 200.34 55.8427Z" fill="#263238"/>
<path d="M178.445 27.7878C178.199 27.843 177.948 27.8725 177.696 27.8756C177.454 27.8756 177.18 27.9169 176.819 27.9633C176.457 28.0098 176.085 28.0408 175.662 28.1234C174.662 28.2839 173.674 28.5081 172.703 28.7947C171.518 29.1548 170.361 29.6036 169.243 30.1373C168.133 30.6849 167.065 31.3132 166.047 32.0169C165.221 32.6014 164.433 33.2379 163.687 33.9224C163.357 34.2064 163.088 34.4904 162.84 34.7279C162.592 34.9654 162.391 35.1875 162.231 35.3631C162.075 35.5503 161.902 35.7231 161.715 35.8794C161.848 35.6639 162.002 35.4616 162.174 35.2753C162.324 35.0842 162.515 34.857 162.752 34.604C162.99 34.3509 163.269 34.0566 163.574 33.7623C164.311 33.0533 165.096 32.3959 165.923 31.7949C167.956 30.3291 170.227 29.2266 172.636 28.5365C173.62 28.2584 174.623 28.0513 175.636 27.9169C176.07 27.8446 176.462 27.8291 176.808 27.7929C177.154 27.7568 177.449 27.7516 177.696 27.7516C177.947 27.744 178.197 27.7561 178.445 27.7878Z" fill="#263238"/>
<path d="M175.802 72.2118C175.73 72.2118 176.484 69.5938 177.48 66.4129C178.477 63.232 179.344 60.6708 179.417 60.6914C179.489 60.7121 178.735 63.3095 177.738 66.4904C176.742 69.6713 175.869 72.2325 175.802 72.2118Z" fill="#263238"/>
<path d="M198.238 22.8407C198.238 22.8407 198.238 22.8924 198.238 22.9905C198.202 23.1351 198.139 23.2717 198.052 23.3933C197.895 23.6239 197.681 23.8098 197.43 23.9329C197.179 24.056 196.901 24.112 196.622 24.0955C196.241 24.0449 195.882 23.8853 195.589 23.636C195.292 23.3694 194.918 23.2033 194.52 23.1609C194.083 23.1588 193.657 23.3043 193.312 23.574C192.933 23.881 192.586 24.2272 192.279 24.6067C191.642 25.3471 190.89 25.9815 190.054 26.4864C189.361 26.8935 188.587 27.1438 187.787 27.2196C187.249 27.2669 186.707 27.209 186.191 27.0492C186.006 26.9978 185.831 26.9139 185.675 26.8014C186.354 27.0195 187.071 27.0968 187.782 27.0286C188.549 26.9325 189.286 26.6737 189.945 26.2695C190.751 25.7673 191.475 25.1457 192.093 24.426C192.417 24.044 192.781 23.6978 193.178 23.3933C193.573 23.0916 194.059 22.9332 194.557 22.944C194.998 22.9962 195.412 23.1858 195.739 23.4862C195.999 23.7201 196.319 23.8758 196.663 23.9355C196.91 23.9446 197.156 23.8945 197.38 23.7894C197.603 23.6843 197.799 23.5273 197.949 23.3313C198.062 23.178 198.159 23.0137 198.238 22.8407Z" fill="#263238"/>
<path d="M198.187 26.6156C198.187 26.6156 198.311 26.6156 198.517 26.6724C198.817 26.7535 199.103 26.8806 199.364 27.0493C199.57 27.1785 199.739 27.3574 199.858 27.5695C199.976 27.7816 200.039 28.02 200.04 28.2628C199.999 28.5537 199.894 28.832 199.733 29.0781C199.573 29.3243 199.36 29.5324 199.111 29.688C198.637 30.0161 198.076 30.1958 197.5 30.2044C197.031 30.2051 196.569 30.0879 196.157 29.8636C195.885 29.7154 195.642 29.5195 195.44 29.2853C195.3 29.1148 195.248 29.0064 195.259 28.9961C195.559 29.2662 195.89 29.5002 196.245 29.6932C196.636 29.8768 197.063 29.967 197.495 29.9565C198.02 29.9273 198.525 29.7481 198.951 29.4402C199.168 29.3052 199.355 29.1268 199.5 28.9162C199.645 28.7056 199.744 28.4673 199.793 28.2163C199.792 28.0133 199.743 27.8133 199.648 27.6334C199.554 27.4536 199.417 27.2993 199.25 27.1836C199.011 27.011 198.753 26.8655 198.481 26.7498C198.29 26.6879 198.181 26.6311 198.187 26.6156Z" fill="#263238"/>
<path d="M181.301 125.564C181.301 125.637 170.395 122.347 156.995 118.226C143.595 114.106 132.725 110.703 132.767 110.631C132.808 110.558 143.672 113.848 157.078 117.968C170.483 122.089 181.322 125.476 181.301 125.564Z" fill="#263238"/>
<path d="M180.392 127.676C180.392 127.748 169.486 124.464 156.086 120.344C142.685 116.223 131.852 112.82 131.852 112.748C131.852 112.675 142.753 115.96 156.158 120.085C169.563 124.211 180.422 127.609 180.392 127.676Z" fill="#263238"/>
<path d="M179.716 129.995C179.716 130.062 168.81 126.778 155.41 122.657C142.01 118.536 131.141 115.133 131.182 115.061C131.223 114.989 142.083 118.273 155.488 122.399C168.893 126.525 179.737 129.922 179.716 129.995Z" fill="#263238"/>
<path d="M179.029 132.308C179.029 132.38 168.123 129.091 154.723 124.97C141.323 120.85 130.454 117.447 130.495 117.374C130.536 117.302 141.401 120.592 154.806 124.712C168.211 128.833 179.05 132.236 179.029 132.308Z" fill="#263238"/>
<path d="M178.327 134.621C178.301 134.694 167.421 131.409 154.021 127.284C140.621 123.158 129.751 119.76 129.792 119.693C129.833 119.626 140.714 122.894 154.119 127.025C167.524 131.156 178.368 134.549 178.327 134.621Z" fill="#263238"/>
<path d="M167.901 84.6824C167.899 84.8012 167.882 84.9192 167.85 85.0336C167.819 85.2711 167.715 85.5964 167.602 86.0302C167.369 86.8874 167.008 88.0957 166.543 89.6448C165.614 92.6863 164.281 96.8741 162.789 101.47C161.297 106.066 159.908 110.248 158.896 113.254C158.379 114.736 157.982 115.944 157.682 116.812C157.543 117.209 157.424 117.529 157.336 117.777C157.303 117.892 157.258 118.003 157.202 118.108C157.217 117.988 157.245 117.87 157.285 117.757L157.584 116.781C157.858 115.903 158.245 114.684 158.715 113.197L162.531 101.387C164.023 96.7967 165.371 92.6089 166.357 89.588C166.838 88.1009 167.225 86.8822 167.504 86.0095C167.628 85.5861 167.746 85.2556 167.798 85.0336C167.826 84.9147 167.86 84.7974 167.901 84.6824Z" fill="#E0E0E0"/>
<path d="M182.669 52.8112C182.669 52.8834 182.318 52.8679 181.921 52.7751C181.523 52.6822 181.214 52.548 181.229 52.4758C181.245 52.4035 181.58 52.419 181.983 52.5119C182.385 52.6048 182.684 52.7389 182.669 52.8112Z" fill="#263238"/>
<path d="M192.294 92.2991C192.269 92.3662 181.389 89.0201 167.988 84.8219C154.588 80.6237 143.719 77.164 143.76 77.0762C143.801 76.9884 154.661 80.35 168.066 84.5482C181.471 88.7464 192.315 92.2268 192.294 92.2991Z" fill="#EBEBEB"/>
<path d="M164.385 109.67C164.494 109.597 164.621 109.555 164.752 109.551C165.114 109.515 165.477 109.6 165.785 109.794C166.021 109.933 166.216 110.131 166.35 110.37C166.484 110.608 166.553 110.878 166.549 111.152C166.554 111.492 166.454 111.826 166.263 112.108C166.071 112.389 165.797 112.605 165.478 112.725C165.159 112.844 164.811 112.863 164.482 112.777C164.152 112.692 163.857 112.506 163.637 112.247C163.449 112.041 163.32 111.789 163.264 111.516C163.207 111.243 163.226 110.961 163.316 110.698C163.419 110.352 163.635 110.052 163.931 109.845C164.031 109.759 164.156 109.705 164.287 109.691C164.287 109.691 164.168 109.768 163.998 109.928C163.746 110.143 163.566 110.429 163.482 110.749C163.418 110.976 163.414 111.216 163.47 111.444C163.526 111.673 163.64 111.884 163.802 112.056C163.991 112.274 164.242 112.429 164.522 112.5C164.802 112.571 165.096 112.555 165.367 112.454C165.637 112.353 165.87 112.171 166.034 111.934C166.198 111.697 166.286 111.415 166.286 111.126C166.294 110.891 166.242 110.657 166.133 110.448C166.024 110.239 165.863 110.062 165.666 109.933C165.397 109.746 165.079 109.644 164.752 109.639C164.504 109.654 164.385 109.696 164.385 109.67Z" fill="#E0E0E0"/>
<path d="M168.995 95.8363C169.103 95.7617 169.23 95.7204 169.361 95.7175C169.723 95.6823 170.086 95.7676 170.394 95.9602C170.629 96.0995 170.823 96.2985 170.957 96.537C171.09 96.7755 171.158 97.0451 171.153 97.3183C171.159 97.6588 171.059 97.9926 170.867 98.2742C170.675 98.5557 170.401 98.7711 170.082 98.8909C169.764 99.0107 169.416 99.0291 169.086 98.9436C168.756 98.858 168.461 98.6727 168.241 98.413C168.053 98.2074 167.924 97.955 167.868 97.6824C167.812 97.4098 167.83 97.127 167.921 96.8638C168.026 96.5341 168.234 96.2465 168.515 96.0428C168.616 95.9593 168.74 95.9073 168.871 95.8931C168.871 95.8931 168.757 95.9705 168.582 96.1254C168.331 96.3431 168.151 96.6308 168.065 96.9516C167.999 97.178 167.994 97.4176 168.049 97.6467C168.104 97.8759 168.218 98.0866 168.38 98.2581C168.578 98.459 168.827 98.6022 169.1 98.6723C169.373 98.7423 169.659 98.7366 169.929 98.6557C170.193 98.544 170.42 98.3593 170.583 98.1233C170.746 97.8874 170.838 97.6099 170.849 97.3234C170.858 97.0891 170.807 96.8563 170.699 96.648C170.591 96.4397 170.431 96.2631 170.234 96.1357C169.963 95.9498 169.644 95.8459 169.315 95.8363C169.134 95.8208 169 95.8621 168.995 95.8363Z" fill="#E0E0E0"/>
<path d="M161.643 73.4924C161.751 73.4191 161.878 73.3779 162.009 73.3736C162.371 73.3372 162.734 73.4226 163.042 73.6163C163.278 73.755 163.473 73.9537 163.607 74.1922C163.742 74.4308 163.81 74.7007 163.806 74.9744C163.812 75.3149 163.712 75.6487 163.52 75.9303C163.328 76.2118 163.054 76.4272 162.736 76.547C162.417 76.6668 162.069 76.6852 161.739 76.5997C161.409 76.5141 161.114 76.3288 160.894 76.0691C160.706 75.8635 160.578 75.6111 160.521 75.3385C160.465 75.0659 160.483 74.7831 160.574 74.52C160.676 74.1745 160.893 73.8741 161.188 73.6679C161.289 73.5818 161.413 73.5278 161.545 73.513C161.545 73.513 161.431 73.5905 161.255 73.7454C161.005 73.9633 160.825 74.2509 160.739 74.5716C160.675 74.7985 160.671 75.038 160.728 75.2669C160.784 75.4957 160.898 75.7063 161.059 75.878C161.248 76.0961 161.5 76.2511 161.779 76.3222C162.059 76.3934 162.354 76.3773 162.624 76.2762C162.894 76.175 163.127 75.9936 163.291 75.7563C163.456 75.519 163.544 75.2372 163.543 74.9485C163.552 74.7131 163.499 74.4795 163.39 74.2704C163.282 74.0614 163.121 73.884 162.923 73.7557C162.655 73.5687 162.337 73.4662 162.009 73.4614C161.803 73.4769 161.648 73.5182 161.643 73.4924Z" fill="#E0E0E0"/>
<path d="M160.837 63.1288C160.904 63.1288 159.706 67.0997 158.163 71.9485C156.619 76.7973 155.302 80.727 155.229 80.6908C155.157 80.6547 156.355 76.7199 157.904 71.8659C159.453 67.012 160.77 63.1081 160.837 63.1288Z" fill="#EBEBEB"/>
<g opacity="0.3">
<path d="M133.623 107.919C133.623 107.919 140.661 87.1764 143.357 76.9366C139.799 81.1916 135.787 86.0765 133.695 91.2093C131.591 96.576 131.565 102.535 133.623 107.919Z" fill="black"/>
</g>
<path d="M141.329 163.043C140.66 163.195 140.078 163.604 139.707 164.181C139.337 164.759 139.208 165.458 139.348 166.13C139.488 166.801 139.886 167.391 140.456 167.772C141.026 168.153 141.723 168.295 142.397 168.168C143.071 168.04 143.668 167.653 144.06 167.09C144.452 166.527 144.607 165.833 144.492 165.157C144.377 164.48 144.001 163.876 143.445 163.474C142.889 163.072 142.198 162.904 141.52 163.007" fill="#017858"/>
<path d="M145.484 104.503C145.586 104.535 145.694 104.543 145.801 104.528C145.907 104.513 146.009 104.474 146.099 104.415C146.282 104.294 146.419 104.071 146.51 103.746L148.605 96.2655L150.671 96.8213L148.589 104.368C148.364 105.209 147.951 105.807 147.35 106.166C146.749 106.523 146.072 106.601 145.318 106.398C144.914 106.288 144.53 106.115 144.182 105.885L145.06 104.293C145.186 104.389 145.33 104.46 145.484 104.503ZM151.64 93.5359L151.073 95.5614L148.932 94.9854L149.499 92.9599L151.64 93.5359Z" fill="#383839"/>
<path d="M173.953 103.515L171.195 107.573L170.95 102.709L169.724 102.379L169.136 104.465L169.706 109.389C169.335 109.934 168.889 110.138 168.372 109.999C168.217 109.959 168.068 109.9 167.927 109.823L167.147 111.283C167.565 111.507 167.915 111.657 168.196 111.733C168.725 111.887 169.295 111.834 169.789 111.585C170.289 111.336 170.819 110.838 171.379 110.09L175.903 104.039L173.953 103.515Z" fill="#01AB7D"/>
<path d="M153.433 97.5627L152.178 102.015C152.034 102.527 152.04 102.939 152.202 103.246C152.362 103.554 152.691 103.776 153.189 103.909C153.689 104.043 154.087 104.017 154.386 103.832C154.685 103.647 154.906 103.298 155.05 102.786L155.702 100.472L158.359 98.9742L157.078 103.519C156.796 104.516 156.276 105.193 155.516 105.549C154.756 105.908 153.822 105.939 152.717 105.642C151.621 105.348 150.851 104.865 150.407 104.194C149.962 103.524 149.884 102.68 150.171 101.664L151.476 97.0336L153.434 97.559L153.433 97.5627Z" fill="#383839"/>
<path d="M163.303 104.595C163.178 104.243 162.961 103.93 162.675 103.687C162.326 103.402 161.95 103.15 161.554 102.933C161.103 102.673 160.794 102.455 160.63 102.278C160.551 102.201 160.496 102.104 160.469 101.997C160.442 101.891 160.446 101.779 160.479 101.673C160.504 101.582 160.553 101.499 160.621 101.432C160.689 101.365 160.773 101.317 160.866 101.293C161.1 101.227 161.347 101.229 161.578 101.301C161.946 101.402 162.299 101.55 162.628 101.741C162.718 101.792 162.804 101.845 162.889 101.899L163.015 101.45L162.01 99.6961C161.102 99.456 160.308 99.4709 159.631 99.7407C158.948 100.014 158.501 100.529 158.287 101.29C157.959 102.454 158.432 103.397 159.706 104.12C160.213 104.414 160.573 104.655 160.79 104.84C161.006 105.025 161.082 105.231 161.018 105.458C160.965 105.645 160.823 105.771 160.59 105.837C160.356 105.902 160.057 105.886 159.688 105.787C159.32 105.684 158.968 105.534 158.641 105.34C158.302 105.142 157.985 104.91 157.695 104.648L156.722 105.994C157.095 106.311 157.497 106.593 157.924 106.834C158.335 107.074 158.777 107.259 159.238 107.386C160.234 107.654 161.104 107.665 161.848 107.419C162.592 107.174 163.074 106.661 163.293 105.882C163.433 105.388 163.436 104.959 163.303 104.595Z" fill="#383839"/>
<path d="M167.615 101.303C167.712 100.956 167.859 100.72 168.057 100.598C168.153 100.537 168.26 100.497 168.372 100.481C168.484 100.466 168.598 100.474 168.707 100.507C168.769 100.524 168.831 100.545 168.891 100.57L169.016 100.125L168.237 98.7619C167.72 98.7227 167.268 98.7983 166.882 98.9952C166.307 99.2897 165.894 99.8816 165.643 100.771L165.501 101.277L164.411 100.984L163.972 102.545L165.048 102.834L163.515 108.289L165.483 108.818L167.016 103.365L168.631 103.8L169.07 102.238L167.469 101.808L167.611 101.302L167.615 101.303Z" fill="#01AB7D"/>
<path d="M13 107.672L38.8019 75.2086L64.3328 107.481L13 107.672Z" fill="#B3E6D8"/>
<path d="M50.5859 102.381L27.2031 102.467L27.4888 180.409L50.8716 180.323L50.5859 102.381Z" fill="#B3E6D8"/>
<path d="M64.3298 85.1287L78.7442 67L93 85.023L64.3298 85.1287Z" fill="#B3E6D8"/>
<path d="M85.327 82.1757L72.2675 82.2235L72.4611 135.023L85.5205 134.975L85.327 82.1757Z" fill="#B3E6D8"/>
</svg>
