<svg width="56" height="27" viewBox="0 0 56 27" fill="none" xmlns="http://www.w3.org/2000/svg">
<path d="M1.65605 22.9872C1.85757 22.9951 2.05829 22.9577 2.24343 22.8778C2.42858 22.7978 2.59342 22.6773 2.72581 22.5252C2.99593 22.216 3.13099 21.7433 3.13099 21.1071V6.45766H7.15407L7.21093 21.2209C7.22869 22.8629 6.78443 24.1529 5.87823 25.1019C4.97196 26.0473 3.78494 26.52 2.31718 26.52C1.52968 26.5181 0.747507 26.3909 0 26.1431L0.781833 22.813C1.05946 22.9263 1.3562 22.9854 1.65605 22.9872ZM7.24291 0V3.96625H3.07414V0H7.24291Z" fill="#131313"/>
<path d="M52.219 7.31787L49.3084 16.0504L46.3977 7.31787H44.02V11.4014L47.5455 20.0838C47.1545 21.2567 46.4544 21.8466 45.4522 21.8466C45.1517 21.8488 44.8521 21.8142 44.5601 21.7436L43.8955 24.7822C44.7627 24.9848 45.4687 25.0867 46.0137 25.0879C47.0459 25.1097 48.0471 24.7344 48.8107 24.0394C49.5854 23.3431 50.288 22.1774 50.9182 20.5423L56.0005 7.31787H52.219Z" fill="#41C78F"/>
<path d="M12.4845 6.45779V15.1722C12.4845 16.1745 12.7048 16.9208 13.1526 17.4006C13.5969 17.8839 14.3018 18.1256 15.2673 18.1256C16.234 18.1256 16.9389 17.8839 17.3819 17.4006C17.8262 16.9173 18.0477 16.1745 18.0465 15.1722V10.6443L22.0696 6.62124V15.5169C22.0696 17.4681 21.4761 18.9536 20.289 19.9736C19.1017 20.9972 17.4373 21.509 15.2957 21.509C13.174 21.509 11.5427 21.0067 10.4018 20.002C9.26098 18.9999 8.69116 17.5036 8.69238 15.5134V6.45068H12.4845V6.45779Z" fill="#131313"/>
<path d="M33.7088 14.447C33.3044 13.867 32.7556 13.4026 32.1166 13.1001C31.3425 12.7528 30.5383 12.4768 29.7141 12.2756C28.7687 12.0233 28.1029 11.7769 27.7167 11.5364C27.5359 11.434 27.3864 11.2843 27.2843 11.1033C27.1823 10.9223 27.1315 10.717 27.1374 10.5093C27.1361 10.3308 27.1821 10.1552 27.2707 10.0004C27.3594 9.84555 27.4875 9.71699 27.6421 9.62783C28.0291 9.39314 28.4764 9.27709 28.9286 9.29403C29.6429 9.29936 30.3536 9.39612 31.0433 9.58196C31.2316 9.63171 31.4129 9.68501 31.5941 9.74186V8.86365L28.8931 6.1626C27.1339 6.16978 25.7123 6.5844 24.6283 7.40647C23.5372 8.23805 22.9934 9.3932 22.9934 10.8823C22.9934 13.1604 24.325 14.646 26.9882 15.339C28.0508 15.6269 28.822 15.8898 29.3054 16.1208C29.7887 16.3518 30.0303 16.6894 30.0303 17.1337C30.0303 17.4998 29.8385 17.7983 29.4511 18.0329C29.0634 18.2639 28.5163 18.3813 27.802 18.3813C27.0869 18.3744 26.3758 18.2728 25.6874 18.0791C24.977 17.8847 24.2886 17.618 23.6327 17.2831L22.5635 20.208C23.3956 20.6027 24.263 20.9181 25.1544 21.1498C26.0176 21.3843 26.9076 21.5062 27.8021 21.5124C29.7319 21.5124 31.3052 21.1072 32.5217 20.2969C33.7372 19.4866 34.3449 18.3185 34.3449 16.7927C34.3449 15.8259 34.1329 15.044 33.7088 14.447Z" fill="#131313"/>
<path d="M39.7697 6.35129C39.7697 5.67293 39.9154 5.17137 40.2104 4.85147C40.3519 4.69399 40.5259 4.56917 40.7204 4.48566C40.915 4.40216 41.1253 4.36198 41.3369 4.36789C41.4593 4.36922 41.5816 4.37753 41.703 4.39277V3.52231L39.6026 1.42188C38.6501 1.60309 37.8718 1.96209 37.2748 2.5094C36.3863 3.32681 35.9409 4.60625 35.9385 6.34773V7.33975H33.8203V10.3957H35.9101V21.0755H39.7342V10.3993H42.8724V7.34288H39.7627V6.35129H39.7697Z" fill="#41C78F"/>
</svg>
