<svg width="14" height="15" viewBox="0 0 14 15" fill="none" xmlns="http://www.w3.org/2000/svg">
<path d="M12.4489 14.5087C12.7299 14.8131 13.2043 14.8321 13.5087 14.5511C13.8131 14.2702 13.8321 13.7957 13.5511 13.4913L12.4489 14.5087ZM10.1324 6.35294C10.1324 8.95273 8.20051 10.9559 5.94118 10.9559V12.4559C9.13972 12.4559 11.6324 9.66585 11.6324 6.35294H10.1324ZM5.94118 10.9559C3.68185 10.9559 1.75 8.95273 1.75 6.35294H0.25C0.25 9.66585 2.74263 12.4559 5.94118 12.4559V10.9559ZM1.75 6.35294C1.75 3.75315 3.68185 1.75 5.94118 1.75V0.25C2.74263 0.25 0.25 3.04003 0.25 6.35294H1.75ZM5.94118 1.75C8.20051 1.75 10.1324 3.75315 10.1324 6.35294H11.6324C11.6324 3.04003 9.13972 0.25 5.94118 0.25V1.75ZM8.91949 10.6852L12.4489 14.5087L13.5511 13.4913L10.0217 9.66776L8.91949 10.6852Z" fill="#898989"/>
</svg>
